{"scene":0,"scenes":[{"nodes":[0]}],"nodes":[{"mesh":0}],"meshes":[{"primitives":[{"attributes":{"POSITION":1,"TEXCOORD_0":4},"indices":0,"material":0},{"attributes":{"POSITION":3,"TEXCOORD_0":5},"indices":2,"material":1}]}],"textures":[{"source":0,"sampler":0}],"images":[{"uri":"data:image/png;base64,"}],"samplers":[{"magFilter":9728,"minFilter":9987,"wrapS":33648,"wrapT":33648},{"magFilter":9728,"minFilter":9987,"wrapS":33648,"wrapT":33648}],"materials":[{"pbrMetallicRoughness":{"baseColorTexture":{"index":0},"metallicFactor":0,"roughnessFactor":1}},{"alphaMode":"BLEND","pbrMetallicRoughness":{"baseColorTexture":{"index":0},"metallicFactor":0,"roughnessFactor":1}}],"buffers":[{"uri":"data:application/octet-stream;base64,","byteLength":1620},{"uri":"data:application/octet-stream;base64,","byteLength":2232},{"uri":"data:application/octet-stream;base64,","byteLength":24},{"uri":"data:application/octet-stream;base64,","byteLength":96},{"uri":"data:application/gltf-buffer;base64,","byteLength":1488},{"uri":"data:application/gltf-buffer;base64,","byteLength":64}],"bufferViews":[{"buffer":0,"byteOffset":0,"byteLength":1620,"target":34963},{"buffer":1,"byteOffset":0,"byteLength":2232},{"buffer":2,"byteOffset":0,"byteLength":24,"target":34963},{"buffer":3,"byteOffset":0,"byteLength":96},{"buffer":4,"byteOffset":0,"target":34962,"byteLength":1488},{"buffer":5,"byteOffset":0,"target":34962,"byteLength":64}],"accessors":[{"bufferView":0,"byteOffset":0,"componentType":5123,"count":810,"type":"SCALAR","max":[185],"min":[0]},{"bufferView":1,"byteOffset":0,"componentType":5126,"count":186,"type":"VEC3","max":[24,180,120],"min":[-58,96,-120]},{"bufferView":2,"byteOffset":0,"componentType":5123,"count":12,"type":"SCALAR","max":[7],"min":[0]},{"bufferView":3,"byteOffset":0,"componentType":5126,"count":8,"type":"VEC3","max":[20,168,108],"min":[20,112,-108]},{"bufferView":4,"byteOffset":0,"componentType":5126,"count":186,"type":"VEC2","max":[0.7857142857142857,0.66],"min":[0.07142857142857142,0.33]},{"bufferView":5,"byteOffset":0,"componentType":5126,"count":8,"type":"VEC2","max":[0.9285714285714285,0.66],"min":[0.9285714285714285,0.33]}],"asset":{"version":"2.0"}}