{"scene":0,"scenes":[{"nodes":[0]}],"nodes":[{"mesh":0}],"meshes":[{"primitives":[{"attributes":{"POSITION":1,"TEXCOORD_0":4},"indices":0,"material":0},{"attributes":{"POSITION":3,"TEXCOORD_0":5},"indices":2,"material":1}]}],"textures":[{"source":0,"sampler":0}],"images":[{"uri":"data:image/png;base64,"}],"samplers":[{"magFilter":9728,"minFilter":9987,"wrapS":33648,"wrapT":33648},{"magFilter":9728,"minFilter":9987,"wrapS":33648,"wrapT":33648}],"materials":[{"pbrMetallicRoughness":{"baseColorTexture":{"index":0},"metallicFactor":0,"roughnessFactor":1}},{"alphaMode":"BLEND","pbrMetallicRoughness":{"baseColorTexture":{"index":0},"metallicFactor":0,"roughnessFactor":1}}],"buffers":[{"uri":"data:application/octet-stream;base64,","byteLength":972},{"uri":"data:application/octet-stream;base64,","byteLength":2172},{"uri":"data:application/octet-stream;base64,","byteLength":48},{"uri":"data:application/octet-stream;base64,","byteLength":96},{"uri":"data:application/gltf-buffer;base64,","byteLength":1448},{"uri":"data:application/gltf-buffer;base64,","byteLength":64}],"bufferViews":[{"buffer":0,"byteOffset":0,"byteLength":972,"target":34963},{"buffer":1,"byteOffset":0,"byteLength":2172},{"buffer":2,"byteOffset":0,"byteLength":48,"target":34963},{"buffer":3,"byteOffset":0,"byteLength":96},{"buffer":4,"byteOffset":0,"target":34962,"byteLength":1448},{"buffer":5,"byteOffset":0,"target":34962,"byteLength":64}],"accessors":[{"bufferView":0,"byteOffset":0,"componentType":5123,"count":486,"type":"SCALAR","max":[180],"min":[0]},{"bufferView":1,"byteOffset":0,"componentType":5126,"count":181,"type":"VEC3","max":[56,114,51],"min":[-52,0,-52]},{"bufferView":2,"byteOffset":0,"componentType":5123,"count":24,"type":"SCALAR","max":[7],"min":[0]},{"bufferView":3,"byteOffset":0,"componentType":5126,"count":8,"type":"VEC3","max":[28,108,-22],"min":[11,78,-39]},{"bufferView":4,"byteOffset":0,"componentType":5126,"count":181,"type":"VEC2","max":[0.9,0.66],"min":[0.30000000000000004,0.33]},{"bufferView":5,"byteOffset":0,"componentType":5126,"count":8,"type":"VEC2","max":[0.1,0.66],"min":[0.1,0.33]}],"asset":{"version":"2.0"}}