{"scene":0,"scenes":[{"nodes":[0]}],"nodes":[{"mesh":0}],"meshes":[{"primitives":[{"attributes":{"POSITION":1,"TEXCOORD_0":2},"indices":0,"material":0}]}],"textures":[{"source":0,"sampler":0}],"images":[{"uri":"data:image/png;base64,"}],"samplers":[{"magFilter":9728,"minFilter":9987,"wrapS":33648,"wrapT":33648}],"materials":[{"pbrMetallicRoughness":{"baseColorTexture":{"index":0},"metallicFactor":0,"roughnessFactor":1}}],"buffers":[{"uri":"data:application/octet-stream;base64,","byteLength":2688},{"uri":"data:application/octet-stream;base64,","byteLength":3432},{"uri":"data:application/gltf-buffer;base64,","byteLength":2288}],"bufferViews":[{"buffer":0,"byteOffset":0,"byteLength":2688,"target":34963},{"buffer":1,"byteOffset":0,"byteLength":3432},{"buffer":2,"byteOffset":0,"target":34962,"byteLength":2288}],"accessors":[{"bufferView":0,"byteOffset":0,"componentType":5123,"count":1344,"type":"SCALAR","max":[285],"min":[0]},{"bufferView":1,"byteOffset":0,"componentType":5126,"count":286,"type":"VEC3","max":[32,231,36],"min":[-40,0,-32]},{"bufferView":2,"byteOffset":0,"componentType":5126,"count":286,"type":"VEC2","max":[0.9500000000000001,0.66],"min":[0.05,0.33]}],"asset":{"version":"2.0"}}