{"scene":0,"scenes":[{"nodes":[0]}],"nodes":[{"mesh":0}],"meshes":[{"primitives":[{"attributes":{"POSITION":1,"TEXCOORD_0":4},"indices":0,"material":0},{"attributes":{"POSITION":3,"TEXCOORD_0":5},"indices":2,"material":1}]}],"textures":[{"source":0,"sampler":0}],"images":[{"uri":"data:image/png;base64,"}],"samplers":[{"magFilter":9728,"minFilter":9987,"wrapS":33648,"wrapT":33648},{"magFilter":9728,"minFilter":9987,"wrapS":33648,"wrapT":33648}],"materials":[{"pbrMetallicRoughness":{"baseColorTexture":{"index":0},"metallicFactor":0,"roughnessFactor":1}},{"alphaMode":"BLEND","pbrMetallicRoughness":{"baseColorTexture":{"index":0},"metallicFactor":0,"roughnessFactor":1}}],"buffers":[{"uri":"data:application/octet-stream;base64,","byteLength":1470},{"uri":"data:application/octet-stream;base64,","byteLength":2508},{"uri":"data:application/octet-stream;base64,","byteLength":288},{"uri":"data:application/octet-stream;base64,","byteLength":408},{"uri":"data:application/gltf-buffer;base64,","byteLength":1672},{"uri":"data:application/gltf-buffer;base64,","byteLength":272}],"bufferViews":[{"buffer":0,"byteOffset":0,"byteLength":1470,"target":34963},{"buffer":1,"byteOffset":0,"byteLength":2508},{"buffer":2,"byteOffset":0,"byteLength":288,"target":34963},{"buffer":3,"byteOffset":0,"byteLength":408},{"buffer":4,"byteOffset":0,"target":34962,"byteLength":1672},{"buffer":5,"byteOffset":0,"target":34962,"byteLength":272}],"accessors":[{"bufferView":0,"byteOffset":0,"componentType":5123,"count":735,"type":"SCALAR","max":[208],"min":[0]},{"bufferView":1,"byteOffset":0,"componentType":5126,"count":209,"type":"VEC3","max":[-12,234,16],"min":[-64,170,-16]},{"bufferView":2,"byteOffset":0,"componentType":5123,"count":144,"type":"SCALAR","max":[33],"min":[0]},{"bufferView":3,"byteOffset":0,"componentType":5126,"count":34,"type":"VEC3","max":[-17,220,7],"min":[-31,192,-7]},{"bufferView":4,"byteOffset":0,"componentType":5126,"count":209,"type":"VEC2","max":[0.9285714285714285,0.66],"min":[0.07142857142857142,0.33]},{"bufferView":5,"byteOffset":0,"componentType":5126,"count":34,"type":"VEC2","max":[0.7857142857142857,0.66],"min":[0.6428571428571428,0.33]}],"asset":{"version":"2.0"}}