{"scene":0,"scenes":[{"nodes":[0]}],"nodes":[{"mesh":0}],"meshes":[{"primitives":[{"attributes":{"POSITION":1,"TEXCOORD_0":4},"indices":0,"material":0},{"attributes":{"POSITION":3,"TEXCOORD_0":5},"indices":2,"material":1}]}],"textures":[{"source":0,"sampler":0}],"images":[{"uri":"data:image/png;base64,"}],"samplers":[{"magFilter":9728,"minFilter":9987,"wrapS":33648,"wrapT":33648},{"magFilter":9728,"minFilter":9987,"wrapS":33648,"wrapT":33648}],"materials":[{"pbrMetallicRoughness":{"baseColorTexture":{"index":0},"metallicFactor":0,"roughnessFactor":1}},{"alphaMode":"BLEND","pbrMetallicRoughness":{"baseColorTexture":{"index":0},"metallicFactor":0,"roughnessFactor":1}}],"buffers":[{"uri":"data:application/octet-stream;base64,","byteLength":1776},{"uri":"data:application/octet-stream;base64,","byteLength":3504},{"uri":"data:application/octet-stream;base64,","byteLength":192},{"uri":"data:application/octet-stream;base64,","byteLength":768},{"uri":"data:application/gltf-buffer;base64,","byteLength":2336},{"uri":"data:application/gltf-buffer;base64,","byteLength":512}],"bufferViews":[{"buffer":0,"byteOffset":0,"byteLength":1776,"target":34963},{"buffer":1,"byteOffset":0,"byteLength":3504},{"buffer":2,"byteOffset":0,"byteLength":192,"target":34963},{"buffer":3,"byteOffset":0,"byteLength":768},{"buffer":4,"byteOffset":0,"target":34962,"byteLength":2336},{"buffer":5,"byteOffset":0,"target":34962,"byteLength":512}],"accessors":[{"bufferView":0,"byteOffset":0,"componentType":5123,"count":888,"type":"SCALAR","max":[291],"min":[0]},{"bufferView":1,"byteOffset":0,"componentType":5126,"count":292,"type":"VEC3","max":[-12,234,16],"min":[-64,170,-16]},{"bufferView":2,"byteOffset":0,"componentType":5123,"count":96,"type":"SCALAR","max":[63],"min":[0]},{"bufferView":3,"byteOffset":0,"componentType":5126,"count":64,"type":"VEC3","max":[-12,220,12],"min":[-36,192,-12]},{"bufferView":4,"byteOffset":0,"componentType":5126,"count":292,"type":"VEC2","max":[0.9166666666666667,0.66],"min":[0.25,0.33]},{"bufferView":5,"byteOffset":0,"componentType":5126,"count":64,"type":"VEC2","max":[0.08333333333333333,0.66],"min":[0.08333333333333333,0.33]}],"asset":{"version":"2.0"}}