{"scene":0,"scenes":[{"nodes":[0]}],"nodes":[{"mesh":0}],"meshes":[{"primitives":[{"attributes":{"POSITION":1,"TEXCOORD_0":8},"indices":0,"targets":[{"POSITION":2},{"POSITION":3},{"POSITION":4},{"POSITION":5}],"material":0}],"weights":[0,0,0,0]}],"textures":[{"source":0,"sampler":0}],"images":[{"uri":"data:image/png;base64,"}],"samplers":[{"magFilter":9728,"minFilter":9987,"wrapS":33648,"wrapT":33648}],"materials":[{"pbrMetallicRoughness":{"baseColorTexture":{"index":0},"metallicFactor":0,"roughnessFactor":1}}],"animations":[{"name":"candle_flicker","samplers":[{"input":6,"interpolation":"STEP","output":7}],"channels":[{"sampler":0,"target":{"node":0,"path":"weights"}}]}],"buffers":[{"uri":"data:application/octet-stream;base64,","byteLength":1014},{"uri":"data:application/octet-stream;base64,","byteLength":1596},{"uri":"data:application/octet-stream;base64,","byteLength":1596},{"uri":"data:application/octet-stream;base64,","byteLength":1596},{"uri":"data:application/octet-stream;base64,","byteLength":1596},{"uri":"data:application/octet-stream;base64,","byteLength":1596},{"uri":"data:application/octet-stream;base64,","byteLength":80},{"uri":"data:application/gltf-buffer;base64,","byteLength":1064}],"bufferViews":[{"buffer":0,"byteOffset":0,"byteLength":1014,"target":34963},{"buffer":1,"byteOffset":0,"byteLength":1596},{"buffer":2,"byteOffset":0,"byteLength":1596,"target":34962},{"buffer":3,"byteOffset":0,"byteLength":1596,"target":34962},{"buffer":4,"byteOffset":0,"byteLength":1596,"target":34962},{"buffer":5,"byteOffset":0,"byteLength":1596,"target":34962},{"buffer":6,"byteOffset":0,"byteLength":16},{"buffer":6,"byteOffset":16,"byteLength":64},{"buffer":7,"byteOffset":0,"target":34962,"byteLength":1064}],"accessors":[{"bufferView":0,"byteOffset":0,"componentType":5123,"count":507,"type":"SCALAR","max":[132],"min":[0]},{"bufferView":1,"byteOffset":0,"componentType":5126,"count":133,"type":"VEC3","max":[-48,192,62],"min":[-64,144,-62]},{"bufferView":2,"byteOffset":0,"componentType":5126,"count":133,"type":"VEC3","max":[0,0,0],"min":[0,0,0]},{"bufferView":3,"byteOffset":0,"componentType":5126,"count":133,"type":"VEC3","max":[0,0,0],"min":[0,0,0]},{"bufferView":4,"byteOffset":0,"componentType":5126,"count":133,"type":"VEC3","max":[0,0,0],"min":[0,0,0]},{"bufferView":5,"byteOffset":0,"componentType":5126,"count":133,"type":"VEC3","max":[0,0,0],"min":[0,0,0]},{"bufferView":6,"byteOffset":0,"componentType":5126,"count":4,"type":"SCALAR","max":[0.26],"min":[0.08]},{"bufferView":7,"byteOffset":0,"componentType":5126,"count":16,"type":"SCALAR","max":[1],"min":[0]},{"bufferView":8,"byteOffset":0,"componentType":5126,"count":133,"type":"VEC2","max":[0.875,0.66],"min":[0.125,0.33]}],"asset":{"version":"2.0"}}