{"scene":0,"scenes":[{"nodes":[0]}],"nodes":[{"mesh":0}],"meshes":[{"primitives":[{"attributes":{"POSITION":1,"TEXCOORD_0":2},"indices":0,"material":0}]}],"textures":[{"source":0,"sampler":0}],"images":[{"uri":"data:image/png;base64,"}],"samplers":[{"magFilter":9728,"minFilter":9987,"wrapS":33648,"wrapT":33648}],"materials":[{"pbrMetallicRoughness":{"baseColorTexture":{"index":0},"metallicFactor":0,"roughnessFactor":1}}],"buffers":[{"uri":"data:application/octet-stream;base64,","byteLength":906},{"uri":"data:application/octet-stream;base64,","byteLength":1128},{"uri":"data:application/gltf-buffer;base64,","byteLength":752}],"bufferViews":[{"buffer":0,"byteOffset":0,"byteLength":906,"target":34963},{"buffer":1,"byteOffset":0,"byteLength":1128},{"buffer":2,"byteOffset":0,"target":34962,"byteLength":752}],"accessors":[{"bufferView":0,"byteOffset":0,"componentType":5123,"count":453,"type":"SCALAR","max":[93],"min":[0]},{"bufferView":1,"byteOffset":0,"componentType":5126,"count":94,"type":"VEC3","max":[64,128,64],"min":[-64,0,-64]},{"bufferView":2,"byteOffset":0,"componentType":5126,"count":94,"type":"VEC2","max":[0.5,0.66],"min":[0.5,0.33]}],"asset":{"version":"2.0"}}