{"scene":0,"scenes":[{"nodes":[0]}],"nodes":[{"mesh":0}],"meshes":[{"primitives":[{"attributes":{"POSITION":1,"TEXCOORD_0":9},"indices":0,"targets":[{"POSITION":2},{"POSITION":3},{"POSITION":4},{"POSITION":5},{"POSITION":6}],"material":0}],"weights":[0,0,0,0,0]}],"textures":[{"source":0,"sampler":0}],"images":[{"uri":"data:image/png;base64,"}],"samplers":[{"magFilter":9728,"minFilter":9987,"wrapS":33648,"wrapT":33648}],"materials":[{"pbrMetallicRoughness":{"baseColorTexture":{"index":0},"metallicFactor":0,"roughnessFactor":1}}],"animations":[{"name":"torch","samplers":[{"input":7,"interpolation":"STEP","output":8}],"channels":[{"sampler":0,"target":{"node":0,"path":"weights"}}]}],"buffers":[{"uri":"data:application/octet-stream;base64,","byteLength":900},{"uri":"data:application/octet-stream;base64,","byteLength":1716},{"uri":"data:application/octet-stream;base64,","byteLength":1716},{"uri":"data:application/octet-stream;base64,","byteLength":1716},{"uri":"data:application/octet-stream;base64,","byteLength":1716},{"uri":"data:application/octet-stream;base64,","byteLength":1716},{"uri":"data:application/octet-stream;base64,","byteLength":1716},{"uri":"data:application/octet-stream;base64,","byteLength":120},{"uri":"data:application/gltf-buffer;base64,","byteLength":1144}],"bufferViews":[{"buffer":0,"byteOffset":0,"byteLength":900,"target":34963},{"buffer":1,"byteOffset":0,"byteLength":1716},{"buffer":2,"byteOffset":0,"byteLength":1716,"target":34962},{"buffer":3,"byteOffset":0,"byteLength":1716,"target":34962},{"buffer":4,"byteOffset":0,"byteLength":1716,"target":34962},{"buffer":5,"byteOffset":0,"byteLength":1716,"target":34962},{"buffer":6,"byteOffset":0,"byteLength":1716,"target":34962},{"buffer":7,"byteOffset":0,"byteLength":20},{"buffer":7,"byteOffset":20,"byteLength":100},{"buffer":8,"byteOffset":0,"target":34962,"byteLength":1144}],"accessors":[{"bufferView":0,"byteOffset":0,"componentType":5123,"count":450,"type":"SCALAR","max":[142],"min":[0]},{"bufferView":1,"byteOffset":0,"componentType":5126,"count":143,"type":"VEC3","max":[-12,227,16],"min":[-64,101,-15]},{"bufferView":2,"byteOffset":0,"componentType":5126,"count":143,"type":"VEC3","max":[0.5416666666666679,16.765625,0.984375],"min":[-8.859375,-15,-0.984375]},{"bufferView":3,"byteOffset":0,"componentType":5126,"count":143,"type":"VEC3","max":[7.222222222222221,14,8.666666666666668],"min":[-7.777777777777779,-23,-7.333333333333334]},{"bufferView":4,"byteOffset":0,"componentType":5126,"count":143,"type":"VEC3","max":[12.784722222222221,0,12.229166666666668],"min":[-12.340277777777779,-11.4375,-10.958333333333332]},{"bufferView":5,"byteOffset":0,"componentType":5126,"count":143,"type":"VEC3","max":[12.222222222222221,0,12.666666666666668],"min":[-12.777777777777779,-55.96875,-11.333333333333332]},{"bufferView":6,"byteOffset":0,"componentType":5126,"count":143,"type":"VEC3","max":[7.105034722222221,0.08506944444445708,8.432291666666668],"min":[-7.699652777777779,-21.375,-6.286458333333333]},{"bufferView":7,"byteOffset":0,"componentType":5126,"count":5,"type":"SCALAR","max":[0.62],"min":[0.14]},{"bufferView":8,"byteOffset":0,"componentType":5126,"count":25,"type":"SCALAR","max":[1],"min":[0]},{"bufferView":9,"byteOffset":0,"componentType":5126,"count":143,"type":"VEC2","max":[0.9285714285714285,0.66],"min":[0.07142857142857142,0.33]}],"asset":{"version":"2.0"}}