{"scene":0,"scenes":[{"nodes":[0]}],"nodes":[{"mesh":0}],"meshes":[{"primitives":[{"attributes":{"POSITION":1,"TEXCOORD_0":4},"indices":0,"material":0},{"attributes":{"POSITION":3,"TEXCOORD_0":5},"indices":2,"material":1}]}],"textures":[{"source":0,"sampler":0}],"images":[{"uri":"data:image/png;base64,"}],"samplers":[{"magFilter":9728,"minFilter":9987,"wrapS":33648,"wrapT":33648},{"magFilter":9728,"minFilter":9987,"wrapS":33648,"wrapT":33648}],"materials":[{"pbrMetallicRoughness":{"baseColorTexture":{"index":0},"metallicFactor":0,"roughnessFactor":1}},{"alphaMode":"BLEND","pbrMetallicRoughness":{"baseColorTexture":{"index":0},"metallicFactor":0,"roughnessFactor":1}}],"buffers":[{"uri":"data:application/octet-stream;base64,","byteLength":792},{"uri":"data:application/octet-stream;base64,","byteLength":984},{"uri":"data:application/octet-stream;base64,","byteLength":216},{"uri":"data:application/octet-stream;base64,","byteLength":540},{"uri":"data:application/gltf-buffer;base64,","byteLength":656},{"uri":"data:application/gltf-buffer;base64,","byteLength":360}],"bufferViews":[{"buffer":0,"byteOffset":0,"byteLength":792,"target":34963},{"buffer":1,"byteOffset":0,"byteLength":984},{"buffer":2,"byteOffset":0,"byteLength":216,"target":34963},{"buffer":3,"byteOffset":0,"byteLength":540},{"buffer":4,"byteOffset":0,"target":34962,"byteLength":656},{"buffer":5,"byteOffset":0,"target":34962,"byteLength":360}],"accessors":[{"bufferView":0,"byteOffset":0,"componentType":5123,"count":396,"type":"SCALAR","max":[81],"min":[0]},{"bufferView":1,"byteOffset":0,"componentType":5126,"count":82,"type":"VEC3","max":[21,150,28],"min":[-13,0,-24]},{"bufferView":2,"byteOffset":0,"componentType":5123,"count":108,"type":"SCALAR","max":[44],"min":[0]},{"bufferView":3,"byteOffset":0,"componentType":5126,"count":45,"type":"VEC3","max":[17,174,16],"min":[-11,150,-13]},{"bufferView":4,"byteOffset":0,"componentType":5126,"count":82,"type":"VEC2","max":[0.41666666666666663,0.66],"min":[0.08333333333333333,0.33]},{"bufferView":5,"byteOffset":0,"componentType":5126,"count":45,"type":"VEC2","max":[0.9166666666666667,0.66],"min":[0.5833333333333334,0.33]}],"asset":{"version":"2.0"}}