{"scene":0,"scenes":[{"nodes":[0]}],"nodes":[{"mesh":0}],"meshes":[{"primitives":[{"attributes":{"POSITION":1,"TEXCOORD_0":31},"indices":0,"targets":[{"POSITION":2},{"POSITION":3},{"POSITION":4},{"POSITION":5},{"POSITION":6},{"POSITION":7},{"POSITION":8},{"POSITION":9},{"POSITION":10},{"POSITION":11},{"POSITION":12},{"POSITION":13},{"POSITION":14},{"POSITION":15},{"POSITION":16},{"POSITION":17},{"POSITION":18},{"POSITION":19},{"POSITION":20},{"POSITION":21},{"POSITION":22}],"material":0}],"weights":[0,0,0,0,0,0,0,0,0,0,0,0,0,0,0,0,0,0,0,0,0]}],"textures":[{"source":0,"sampler":0}],"images":[{"uri":"data:image/png;base64,"}],"samplers":[{"magFilter":9728,"minFilter":9987,"wrapS":33648,"wrapT":33648}],"materials":[{"pbrMetallicRoughness":{"baseColorTexture":{"index":0},"metallicFactor":0,"roughnessFactor":1}}],"animations":[{"name":"varrock_heavybag_attack","samplers":[{"input":23,"interpolation":"STEP","output":24}],"channels":[{"sampler":0,"target":{"node":0,"path":"weights"}}]},{"name":"varrock_heavybag_ready","samplers":[{"input":25,"interpolation":"STEP","output":26}],"channels":[{"sampler":0,"target":{"node":0,"path":"weights"}}]},{"name":"varrock_heavybag_defend","samplers":[{"input":27,"interpolation":"STEP","output":28}],"channels":[{"sampler":0,"target":{"node":0,"path":"weights"}}]},{"name":"varrock_heavybag_defend_delayed","samplers":[{"input":29,"interpolation":"STEP","output":30}],"channels":[{"sampler":0,"target":{"node":0,"path":"weights"}}]}],"buffers":[{"uri":"data:application/octet-stream;base64,","byteLength":2052},{"uri":"data:application/octet-stream;base64,","byteLength":3468},{"uri":"data:application/octet-stream;base64,","byteLength":3468},{"uri":"data:application/octet-stream;base64,","byteLength":3468},{"uri":"data:application/octet-stream;base64,","byteLength":3468},{"uri":"data:application/octet-stream;base64,","byteLength":3468},{"uri":"data:application/octet-stream;base64,","byteLength":3468},{"uri":"data:application/octet-stream;base64,","byteLength":3468},{"uri":"data:application/octet-stream;base64,","byteLength":3468},{"uri":"data:application/octet-stream;base64,","byteLength":3468},{"uri":"data:application/octet-stream;base64,","byteLength":3468},{"uri":"data:application/octet-stream;base64,","byteLength":3468},{"uri":"data:application/octet-stream;base64,","byteLength":3468},{"uri":"data:application/octet-stream;base64,","byteLength":3468},{"uri":"data:application/octet-stream;base64,","byteLength":3468},{"uri":"data:application/octet-stream;base64,","byteLength":3468},{"uri":"data:application/octet-stream;base64,","byteLength":3468},{"uri":"data:application/octet-stream;base64,","byteLength":3468},{"uri":"data:application/octet-stream;base64,","byteLength":3468},{"uri":"data:application/octet-stream;base64,","byteLength":3468},{"uri":"data:application/octet-stream;base64,","byteLength":3468},{"uri":"data:application/octet-stream;base64,","byteLength":3468},{"uri":"data:application/octet-stream;base64,","byteLength":3468},{"uri":"data:application/octet-stream;base64,","byteLength":792},{"uri":"data:application/octet-stream;base64,","byteLength":352},{"uri":"data:application/octet-stream;base64,","byteLength":704},{"uri":"data:application/octet-stream;base64,","byteLength":704},{"uri":"data:application/gltf-buffer;base64,","byteLength":2312}],"bufferViews":[{"buffer":0,"byteOffset":0,"byteLength":2052,"target":34963},{"buffer":1,"byteOffset":0,"byteLength":3468},{"buffer":2,"byteOffset":0,"byteLength":3468,"target":34962},{"buffer":3,"byteOffset":0,"byteLength":3468,"target":34962},{"buffer":4,"byteOffset":0,"byteLength":3468,"target":34962},{"buffer":5,"byteOffset":0,"byteLength":3468,"target":34962},{"buffer":6,"byteOffset":0,"byteLength":3468,"target":34962},{"buffer":7,"byteOffset":0,"byteLength":3468,"target":34962},{"buffer":8,"byteOffset":0,"byteLength":3468,"target":34962},{"buffer":9,"byteOffset":0,"byteLength":3468,"target":34962},{"buffer":10,"byteOffset":0,"byteLength":3468,"target":34962},{"buffer":11,"byteOffset":0,"byteLength":3468,"target":34962},{"buffer":12,"byteOffset":0,"byteLength":3468,"target":34962},{"buffer":13,"byteOffset":0,"byteLength":3468,"target":34962},{"buffer":14,"byteOffset":0,"byteLength":3468,"target":34962},{"buffer":15,"byteOffset":0,"byteLength":3468,"target":34962},{"buffer":16,"byteOffset":0,"byteLength":3468,"target":34962},{"buffer":17,"byteOffset":0,"byteLength":3468,"target":34962},{"buffer":18,"byteOffset":0,"byteLength":3468,"target":34962},{"buffer":19,"byteOffset":0,"byteLength":3468,"target":34962},{"buffer":20,"byteOffset":0,"byteLength":3468,"target":34962},{"buffer":21,"byteOffset":0,"byteLength":3468,"target":34962},{"buffer":22,"byteOffset":0,"byteLength":3468,"target":34962},{"buffer":23,"byteOffset":0,"byteLength":36},{"buffer":23,"byteOffset":36,"byteLength":756},{"buffer":24,"byteOffset":0,"byteLength":16},{"buffer":24,"byteOffset":16,"byteLength":336},{"buffer":25,"byteOffset":0,"byteLength":32},{"buffer":25,"byteOffset":32,"byteLength":672},{"buffer":26,"byteOffset":0,"byteLength":32},{"buffer":26,"byteOffset":32,"byteLength":672},{"buffer":27,"byteOffset":0,"target":34962,"byteLength":2312}],"accessors":[{"bufferView":0,"byteOffset":0,"componentType":5123,"count":1026,"type":"SCALAR","max":[288],"min":[0]},{"bufferView":1,"byteOffset":0,"componentType":5126,"count":289,"type":"VEC3","max":[63,276,52],"min":[-64,0,-63]},{"bufferView":2,"byteOffset":0,"componentType":5126,"count":289,"type":"VEC3","max":[0,5,1],"min":[0,-0.5,-16.75]},{"bufferView":3,"byteOffset":0,"componentType":5126,"count":289,"type":"VEC3","max":[0,9,1],"min":[0,0,-30.5]},{"bufferView":4,"byteOffset":0,"componentType":5126,"count":289,"type":"VEC3","max":[0,19.5,1],"min":[0,-9.5,-44.25]},{"bufferView":5,"byteOffset":0,"componentType":5126,"count":289,"type":"VEC3","max":[0,14,1],"min":[0,-8,-24]},{"bufferView":6,"byteOffset":0,"componentType":5126,"count":289,"type":"VEC3","max":[0,12.25,13],"min":[0,-5.75,-7]},{"bufferView":7,"byteOffset":0,"componentType":5126,"count":289,"type":"VEC3","max":[0,13.5,38],"min":[0,-4.25,0]},{"bufferView":8,"byteOffset":0,"componentType":5126,"count":289,"type":"VEC3","max":[0,40.75,71.75],"min":[0,-15.25,-2]},{"bufferView":9,"byteOffset":0,"componentType":5126,"count":289,"type":"VEC3","max":[0,17.75,38.5],"min":[0,-8.25,-1]},{"bufferView":10,"byteOffset":0,"componentType":5126,"count":289,"type":"VEC3","max":[0,8.75,20.75],"min":[0,-3.25,0]},{"bufferView":11,"byteOffset":0,"componentType":5126,"count":289,"type":"VEC3","max":[0,1.5,0],"min":[-3.75,0,0]},{"bufferView":12,"byteOffset":0,"componentType":5126,"count":289,"type":"VEC3","max":[0,1,0],"min":[-3,0,0]},{"bufferView":13,"byteOffset":0,"componentType":5126,"count":289,"type":"VEC3","max":[1.25,1.5,0],"min":[-0.75,0,0]},{"bufferView":14,"byteOffset":0,"componentType":5126,"count":289,"type":"VEC3","max":[2,1,0],"min":[-1,0,0]},{"bufferView":15,"byteOffset":0,"componentType":5126,"count":289,"type":"VEC3","max":[0,0,0],"min":[0,0,0]},{"bufferView":16,"byteOffset":0,"componentType":5126,"count":289,"type":"VEC3","max":[0,12.25,1],"min":[0,-1.75,-21.5]},{"bufferView":17,"byteOffset":0,"componentType":5126,"count":289,"type":"VEC3","max":[0,31.5,1],"min":[0,-4.5,-40.75]},{"bufferView":18,"byteOffset":0,"componentType":5126,"count":289,"type":"VEC3","max":[0,8.25,1],"min":[0,-0.25,-24]},{"bufferView":19,"byteOffset":0,"componentType":5126,"count":289,"type":"VEC3","max":[0,14.75,1],"min":[0,-9.25,-29]},{"bufferView":20,"byteOffset":0,"componentType":5126,"count":289,"type":"VEC3","max":[0,4.5,6],"min":[0,0,0]},{"bufferView":21,"byteOffset":0,"componentType":5126,"count":289,"type":"VEC3","max":[0,10,27],"min":[0,-5,0]},{"bufferView":22,"byteOffset":0,"componentType":5126,"count":289,"type":"VEC3","max":[0,4,14],"min":[0,-1,0]},{"bufferView":23,"byteOffset":0,"componentType":5126,"count":9,"type":"SCALAR","max":[0.58],"min":[0.04]},{"bufferView":24,"byteOffset":0,"componentType":5126,"count":189,"type":"SCALAR","max":[1],"min":[0]},{"bufferView":25,"byteOffset":0,"componentType":5126,"count":4,"type":"SCALAR","max":[0.64],"min":[0.16]},{"bufferView":26,"byteOffset":0,"componentType":5126,"count":84,"type":"SCALAR","max":[1],"min":[0]},{"bufferView":27,"byteOffset":0,"componentType":5126,"count":8,"type":"SCALAR","max":[0.84],"min":[0.3]},{"bufferView":28,"byteOffset":0,"componentType":5126,"count":168,"type":"SCALAR","max":[1],"min":[0]},{"bufferView":29,"byteOffset":0,"componentType":5126,"count":8,"type":"SCALAR","max":[1.04],"min":[0.5]},{"bufferView":30,"byteOffset":0,"componentType":5126,"count":168,"type":"SCALAR","max":[1],"min":[0]},{"bufferView":31,"byteOffset":0,"componentType":5126,"count":289,"type":"VEC2","max":[0.9,0.66],"min":[0.1,0.33]}],"asset":{"version":"2.0"}}