{"scene":0,"scenes":[{"nodes":[0]}],"nodes":[{"mesh":0}],"meshes":[{"primitives":[{"attributes":{"POSITION":1,"TEXCOORD_0":16},"indices":0,"targets":[{"POSITION":2},{"POSITION":3},{"POSITION":4},{"POSITION":5},{"POSITION":6},{"POSITION":7},{"POSITION":8},{"POSITION":9},{"POSITION":10},{"POSITION":11},{"POSITION":12},{"POSITION":13}],"material":0}],"weights":[0,0,0,0,0,0,0,0,0,0,0,0]}],"textures":[{"source":0,"sampler":0}],"images":[{"uri":"data:image/png;base64,"}],"samplers":[{"magFilter":9728,"minFilter":9987,"wrapS":33648,"wrapT":33648}],"materials":[{"pbrMetallicRoughness":{"baseColorTexture":{"index":0},"metallicFactor":0,"roughnessFactor":1}}],"animations":[{"name":"wave_casting","samplers":[{"input":14,"interpolation":"STEP","output":15}],"channels":[{"sampler":0,"target":{"node":0,"path":"weights"}}]}],"buffers":[{"uri":"data:application/octet-stream;base64,","byteLength":2448},{"uri":"data:application/octet-stream;base64,","byteLength":3288},{"uri":"data:application/octet-stream;base64,","byteLength":3288},{"uri":"data:application/octet-stream;base64,","byteLength":3288},{"uri":"data:application/octet-stream;base64,","byteLength":3288},{"uri":"data:application/octet-stream;base64,","byteLength":3288},{"uri":"data:application/octet-stream;base64,","byteLength":3288},{"uri":"data:application/octet-stream;base64,","byteLength":3288},{"uri":"data:application/octet-stream;base64,","byteLength":3288},{"uri":"data:application/octet-stream;base64,","byteLength":3288},{"uri":"data:application/octet-stream;base64,","byteLength":3288},{"uri":"data:application/octet-stream;base64,","byteLength":3288},{"uri":"data:application/octet-stream;base64,","byteLength":3288},{"uri":"data:application/octet-stream;base64,","byteLength":3288},{"uri":"data:application/octet-stream;base64,","byteLength":728},{"uri":"data:application/gltf-buffer;base64,","byteLength":2192}],"bufferViews":[{"buffer":0,"byteOffset":0,"byteLength":2448,"target":34963},{"buffer":1,"byteOffset":0,"byteLength":3288},{"buffer":2,"byteOffset":0,"byteLength":3288,"target":34962},{"buffer":3,"byteOffset":0,"byteLength":3288,"target":34962},{"buffer":4,"byteOffset":0,"byteLength":3288,"target":34962},{"buffer":5,"byteOffset":0,"byteLength":3288,"target":34962},{"buffer":6,"byteOffset":0,"byteLength":3288,"target":34962},{"buffer":7,"byteOffset":0,"byteLength":3288,"target":34962},{"buffer":8,"byteOffset":0,"byteLength":3288,"target":34962},{"buffer":9,"byteOffset":0,"byteLength":3288,"target":34962},{"buffer":10,"byteOffset":0,"byteLength":3288,"target":34962},{"buffer":11,"byteOffset":0,"byteLength":3288,"target":34962},{"buffer":12,"byteOffset":0,"byteLength":3288,"target":34962},{"buffer":13,"byteOffset":0,"byteLength":3288,"target":34962},{"buffer":14,"byteOffset":0,"byteLength":56},{"buffer":14,"byteOffset":56,"byteLength":672},{"buffer":15,"byteOffset":0,"target":34962,"byteLength":2192}],"accessors":[{"bufferView":0,"byteOffset":0,"componentType":5123,"count":1224,"type":"SCALAR","max":[273],"min":[0]},{"bufferView":1,"byteOffset":0,"componentType":5126,"count":274,"type":"VEC3","max":[78,90,87],"min":[-78,-48,33]},{"bufferView":2,"byteOffset":0,"componentType":5126,"count":274,"type":"VEC3","max":[0,100,-6],"min":[0,100,-6]},{"bufferView":3,"byteOffset":0,"componentType":5126,"count":274,"type":"VEC3","max":[0,100,-6],"min":[0,100,-6]},{"bufferView":4,"byteOffset":0,"componentType":5126,"count":274,"type":"VEC3","max":[0,100,-6],"min":[0,100,-6]},{"bufferView":5,"byteOffset":0,"componentType":5126,"count":274,"type":"VEC3","max":[44.15335051546391,86.04961340206185,12.5625],"min":[-43.59664948453609,8.424613402061851,-17.8125]},{"bufferView":6,"byteOffset":0,"componentType":5126,"count":274,"type":"VEC3","max":[33.11501288659794,77.5684600515464,7.921875],"min":[-32.69748711340206,19.34971005154638,-14.859375]},{"bufferView":7,"byteOffset":0,"componentType":5126,"count":274,"type":"VEC3","max":[22.076675257731956,65.05605670103093,3.28125],"min":[-21.798324742268044,26.243556701030926,-11.90625]},{"bufferView":8,"byteOffset":0,"componentType":5126,"count":274,"type":"VEC3","max":[11.038337628865975,52.35615335051546,-1.359375],"min":[-10.899162371134025,32.94990335051547,-8.953125]},{"bufferView":9,"byteOffset":0,"componentType":5126,"count":274,"type":"VEC3","max":[0,42,-6],"min":[0,42,-6]},{"bufferView":10,"byteOffset":0,"componentType":5126,"count":274,"type":"VEC3","max":[0,0,0],"min":[0,0,0]},{"bufferView":11,"byteOffset":0,"componentType":5126,"count":274,"type":"VEC3","max":[0,0,0],"min":[0,0,0]},{"bufferView":12,"byteOffset":0,"componentType":5126,"count":274,"type":"VEC3","max":[0,0,0],"min":[0,0,0]},{"bufferView":13,"byteOffset":0,"componentType":5126,"count":274,"type":"VEC3","max":[0,0,0],"min":[0,0,0]},{"bufferView":14,"byteOffset":0,"componentType":5126,"count":14,"type":"SCALAR","max":[0.76],"min":[0.08]},{"bufferView":15,"byteOffset":0,"componentType":5126,"count":168,"type":"SCALAR","max":[1],"min":[0]},{"bufferView":16,"byteOffset":0,"componentType":5126,"count":274,"type":"VEC2","max":[0.8333333333333333,0.66],"min":[0.16666666666666666,0.33]}],"asset":{"version":"2.0"}}