{"scene":0,"scenes":[{"nodes":[0]}],"nodes":[{"mesh":0}],"meshes":[{"primitives":[{"attributes":{"POSITION":1,"TEXCOORD_0":16},"indices":0,"targets":[{"POSITION":2},{"POSITION":3},{"POSITION":4},{"POSITION":5},{"POSITION":6},{"POSITION":7},{"POSITION":8},{"POSITION":9},{"POSITION":10},{"POSITION":11},{"POSITION":12},{"POSITION":13}],"material":0}],"weights":[0,0,0,0,0,0,0,0,0,0,0,0]}],"textures":[{"source":0,"sampler":0}],"images":[{"uri":"data:image/png;base64,"}],"samplers":[{"magFilter":9728,"minFilter":9987,"wrapS":33648,"wrapT":33648}],"materials":[{"pbrMetallicRoughness":{"baseColorTexture":{"index":0},"metallicFactor":0,"roughnessFactor":1}}],"animations":[{"name":"wave_casting","samplers":[{"input":14,"interpolation":"STEP","output":15}],"channels":[{"sampler":0,"target":{"node":0,"path":"weights"}}]}],"buffers":[{"uri":"data:application/octet-stream;base64,","byteLength":2916},{"uri":"data:application/octet-stream;base64,","byteLength":3132},{"uri":"data:application/octet-stream;base64,","byteLength":3132},{"uri":"data:application/octet-stream;base64,","byteLength":3132},{"uri":"data:application/octet-stream;base64,","byteLength":3132},{"uri":"data:application/octet-stream;base64,","byteLength":3132},{"uri":"data:application/octet-stream;base64,","byteLength":3132},{"uri":"data:application/octet-stream;base64,","byteLength":3132},{"uri":"data:application/octet-stream;base64,","byteLength":3132},{"uri":"data:application/octet-stream;base64,","byteLength":3132},{"uri":"data:application/octet-stream;base64,","byteLength":3132},{"uri":"data:application/octet-stream;base64,","byteLength":3132},{"uri":"data:application/octet-stream;base64,","byteLength":3132},{"uri":"data:application/octet-stream;base64,","byteLength":3132},{"uri":"data:application/octet-stream;base64,","byteLength":728},{"uri":"data:application/gltf-buffer;base64,","byteLength":2088}],"bufferViews":[{"buffer":0,"byteOffset":0,"byteLength":2916,"target":34963},{"buffer":1,"byteOffset":0,"byteLength":3132},{"buffer":2,"byteOffset":0,"byteLength":3132,"target":34962},{"buffer":3,"byteOffset":0,"byteLength":3132,"target":34962},{"buffer":4,"byteOffset":0,"byteLength":3132,"target":34962},{"buffer":5,"byteOffset":0,"byteLength":3132,"target":34962},{"buffer":6,"byteOffset":0,"byteLength":3132,"target":34962},{"buffer":7,"byteOffset":0,"byteLength":3132,"target":34962},{"buffer":8,"byteOffset":0,"byteLength":3132,"target":34962},{"buffer":9,"byteOffset":0,"byteLength":3132,"target":34962},{"buffer":10,"byteOffset":0,"byteLength":3132,"target":34962},{"buffer":11,"byteOffset":0,"byteLength":3132,"target":34962},{"buffer":12,"byteOffset":0,"byteLength":3132,"target":34962},{"buffer":13,"byteOffset":0,"byteLength":3132,"target":34962},{"buffer":14,"byteOffset":0,"byteLength":56},{"buffer":14,"byteOffset":56,"byteLength":672},{"buffer":15,"byteOffset":0,"target":34962,"byteLength":2088}],"accessors":[{"bufferView":0,"byteOffset":0,"componentType":5123,"count":1458,"type":"SCALAR","max":[260],"min":[0]},{"bufferView":1,"byteOffset":0,"componentType":5126,"count":261,"type":"VEC3","max":[38,36,40],"min":[-34,-36,-82]},{"bufferView":2,"byteOffset":0,"componentType":5126,"count":261,"type":"VEC3","max":[0,100,0],"min":[0,0,-6]},{"bufferView":3,"byteOffset":0,"componentType":5126,"count":261,"type":"VEC3","max":[0,100,0],"min":[0,0,-6]},{"bufferView":4,"byteOffset":0,"componentType":5126,"count":261,"type":"VEC3","max":[0,100,0],"min":[0,0,-6]},{"bufferView":5,"byteOffset":0,"componentType":5126,"count":261,"type":"VEC3","max":[20.25,65.3125,28.0484693877551],"min":[-20.25,0,-25.9515306122449]},{"bufferView":6,"byteOffset":0,"componentType":5126,"count":261,"type":"VEC3","max":[15.1875,62.015625,19.536352040816325],"min":[-15.1875,0,-20.963647959183675]},{"bufferView":7,"byteOffset":0,"componentType":5126,"count":261,"type":"VEC3","max":[10.125,54.6875,11.024234693877553],"min":[-10.125,0,-15.975765306122447]},{"bufferView":8,"byteOffset":0,"componentType":5126,"count":261,"type":"VEC3","max":[5.0625,47.171875,2.5121173469387728],"min":[-5.0625,0,-10.987882653061224]},{"bufferView":9,"byteOffset":0,"componentType":5126,"count":261,"type":"VEC3","max":[0,42,0],"min":[0,0,-6]},{"bufferView":10,"byteOffset":0,"componentType":5126,"count":261,"type":"VEC3","max":[0,0,0],"min":[0,0,0]},{"bufferView":11,"byteOffset":0,"componentType":5126,"count":261,"type":"VEC3","max":[0,0,0],"min":[0,0,0]},{"bufferView":12,"byteOffset":0,"componentType":5126,"count":261,"type":"VEC3","max":[0,0,0],"min":[0,0,0]},{"bufferView":13,"byteOffset":0,"componentType":5126,"count":261,"type":"VEC3","max":[0,0,0],"min":[0,0,0]},{"bufferView":14,"byteOffset":0,"componentType":5126,"count":14,"type":"SCALAR","max":[0.76],"min":[0.08]},{"bufferView":15,"byteOffset":0,"componentType":5126,"count":168,"type":"SCALAR","max":[1],"min":[0]},{"bufferView":16,"byteOffset":0,"componentType":5126,"count":261,"type":"VEC2","max":[0.8333333333333333,0.66],"min":[0.16666666666666666,0.33]}],"asset":{"version":"2.0"}}