{"scene":0,"scenes":[{"nodes":[0]}],"nodes":[{"mesh":0}],"meshes":[{"primitives":[{"attributes":{"POSITION":1,"TEXCOORD_0":16},"indices":0,"targets":[{"POSITION":2},{"POSITION":3},{"POSITION":4},{"POSITION":5},{"POSITION":6},{"POSITION":7},{"POSITION":8},{"POSITION":9},{"POSITION":10},{"POSITION":11},{"POSITION":12},{"POSITION":13}],"material":0}],"weights":[0,0,0,0,0,0,0,0,0,0,0,0]}],"textures":[{"source":0,"sampler":0}],"images":[{"uri":"data:image/png;base64,"}],"samplers":[{"magFilter":9728,"minFilter":9987,"wrapS":33648,"wrapT":33648}],"materials":[{"pbrMetallicRoughness":{"baseColorTexture":{"index":0},"metallicFactor":0,"roughnessFactor":1}}],"animations":[{"name":"wave_casting","samplers":[{"input":14,"interpolation":"STEP","output":15}],"channels":[{"sampler":0,"target":{"node":0,"path":"weights"}}]}],"buffers":[{"uri":"data:application/octet-stream;base64,","byteLength":2448},{"uri":"data:application/octet-stream;base64,","byteLength":3288},{"uri":"data:application/octet-stream;base64,","byteLength":3288},{"uri":"data:application/octet-stream;base64,","byteLength":3288},{"uri":"data:application/octet-stream;base64,","byteLength":3288},{"uri":"data:application/octet-stream;base64,","byteLength":3288},{"uri":"data:application/octet-stream;base64,","byteLength":3288},{"uri":"data:application/octet-stream;base64,","byteLength":3288},{"uri":"data:application/octet-stream;base64,","byteLength":3288},{"uri":"data:application/octet-stream;base64,","byteLength":3288},{"uri":"data:application/octet-stream;base64,","byteLength":3288},{"uri":"data:application/octet-stream;base64,","byteLength":3288},{"uri":"data:application/octet-stream;base64,","byteLength":3288},{"uri":"data:application/octet-stream;base64,","byteLength":3288},{"uri":"data:application/octet-stream;base64,","byteLength":728},{"uri":"data:application/gltf-buffer;base64,","byteLength":2192}],"bufferViews":[{"buffer":0,"byteOffset":0,"byteLength":2448,"target":34963},{"buffer":1,"byteOffset":0,"byteLength":3288},{"buffer":2,"byteOffset":0,"byteLength":3288,"target":34962},{"buffer":3,"byteOffset":0,"byteLength":3288,"target":34962},{"buffer":4,"byteOffset":0,"byteLength":3288,"target":34962},{"buffer":5,"byteOffset":0,"byteLength":3288,"target":34962},{"buffer":6,"byteOffset":0,"byteLength":3288,"target":34962},{"buffer":7,"byteOffset":0,"byteLength":3288,"target":34962},{"buffer":8,"byteOffset":0,"byteLength":3288,"target":34962},{"buffer":9,"byteOffset":0,"byteLength":3288,"target":34962},{"buffer":10,"byteOffset":0,"byteLength":3288,"target":34962},{"buffer":11,"byteOffset":0,"byteLength":3288,"target":34962},{"buffer":12,"byteOffset":0,"byteLength":3288,"target":34962},{"buffer":13,"byteOffset":0,"byteLength":3288,"target":34962},{"buffer":14,"byteOffset":0,"byteLength":56},{"buffer":14,"byteOffset":56,"byteLength":672},{"buffer":15,"byteOffset":0,"target":34962,"byteLength":2192}],"accessors":[{"bufferView":0,"byteOffset":0,"componentType":5123,"count":1224,"type":"SCALAR","max":[273],"min":[0]},{"bufferView":1,"byteOffset":0,"componentType":5126,"count":274,"type":"VEC3","max":[138,41,143],"min":[-147,-51,-112]},{"bufferView":2,"byteOffset":0,"componentType":5126,"count":274,"type":"VEC3","max":[0,100,-6],"min":[0,100,-6]},{"bufferView":3,"byteOffset":0,"componentType":5126,"count":274,"type":"VEC3","max":[0,100,-6],"min":[0,100,-6]},{"bufferView":4,"byteOffset":0,"componentType":5126,"count":274,"type":"VEC3","max":[0,100,-6],"min":[0,100,-6]},{"bufferView":5,"byteOffset":0,"componentType":5126,"count":274,"type":"VEC3","max":[80.92751288659794,70.86791237113403,64.89529639175257],"min":[-79.38498711340208,19.11791237113401,-78.54220360824743]},{"bufferView":6,"byteOffset":0,"componentType":5126,"count":274,"type":"VEC3","max":[60.69563466494844,66.18218427835052,47.17147229381443],"min":[-59.53874033505156,27.36968427835052,-60.40665270618558]},{"bufferView":7,"byteOffset":0,"componentType":5126,"count":274,"type":"VEC3","max":[40.46375644329896,57.46520618556701,29.447648195876283],"min":[-39.69249355670104,31.590206185567013,-42.27110180412372]},{"bufferView":8,"byteOffset":0,"componentType":5126,"count":274,"type":"VEC3","max":[20.231878221649467,48.560728092783506,11.723824097938149],"min":[-19.846246778350533,35.623228092783506,-24.135550902061865]},{"bufferView":9,"byteOffset":0,"componentType":5126,"count":274,"type":"VEC3","max":[0,42,-6],"min":[0,42,-6]},{"bufferView":10,"byteOffset":0,"componentType":5126,"count":274,"type":"VEC3","max":[0,0,0],"min":[0,0,0]},{"bufferView":11,"byteOffset":0,"componentType":5126,"count":274,"type":"VEC3","max":[0,0,0],"min":[0,0,0]},{"bufferView":12,"byteOffset":0,"componentType":5126,"count":274,"type":"VEC3","max":[0,0,0],"min":[0,0,0]},{"bufferView":13,"byteOffset":0,"componentType":5126,"count":274,"type":"VEC3","max":[0,0,0],"min":[0,0,0]},{"bufferView":14,"byteOffset":0,"componentType":5126,"count":14,"type":"SCALAR","max":[0.76],"min":[0.08]},{"bufferView":15,"byteOffset":0,"componentType":5126,"count":168,"type":"SCALAR","max":[1],"min":[0]},{"bufferView":16,"byteOffset":0,"componentType":5126,"count":274,"type":"VEC2","max":[0.8333333333333333,0.66],"min":[0.16666666666666666,0.33]}],"asset":{"version":"2.0"}}