{"scene":0,"scenes":[{"nodes":[0]}],"nodes":[{"mesh":0}],"meshes":[{"primitives":[{"attributes":{"POSITION":1,"TEXCOORD_0":65},"indices":0,"targets":[{"POSITION":2},{"POSITION":3},{"POSITION":4},{"POSITION":5},{"POSITION":6},{"POSITION":7},{"POSITION":8},{"POSITION":9},{"POSITION":10},{"POSITION":11},{"POSITION":12},{"POSITION":13},{"POSITION":14},{"POSITION":15},{"POSITION":16},{"POSITION":17},{"POSITION":18},{"POSITION":19},{"POSITION":20},{"POSITION":21},{"POSITION":22},{"POSITION":23},{"POSITION":24},{"POSITION":25},{"POSITION":26},{"POSITION":27},{"POSITION":28},{"POSITION":29},{"POSITION":30},{"POSITION":31},{"POSITION":32},{"POSITION":33},{"POSITION":34},{"POSITION":35},{"POSITION":36},{"POSITION":37},{"POSITION":38},{"POSITION":39},{"POSITION":40},{"POSITION":41},{"POSITION":42},{"POSITION":43},{"POSITION":44},{"POSITION":45},{"POSITION":46},{"POSITION":47},{"POSITION":48}],"material":0}],"weights":[0,0,0,0,0,0,0,0,0,0,0,0,0,0,0,0,0,0,0,0,0,0,0,0,0,0,0,0,0,0,0,0,0,0,0,0,0,0,0,0,0,0,0,0,0,0,0]}],"textures":[{"source":0,"sampler":0}],"images":[{"uri":"data:image/png;base64,"}],"samplers":[{"magFilter":9728,"minFilter":9987,"wrapS":33648,"wrapT":33648}],"materials":[{"pbrMetallicRoughness":{"baseColorTexture":{"index":0},"metallicFactor":0,"roughnessFactor":1}}],"animations":[{"name":"earthwarrior_death","samplers":[{"input":49,"interpolation":"STEP","output":50}],"channels":[{"sampler":0,"target":{"node":0,"path":"weights"}}]},{"name":"earthwarrior_ready","samplers":[{"input":51,"interpolation":"STEP","output":52}],"channels":[{"sampler":0,"target":{"node":0,"path":"weights"}}]},{"name":"earthwarrior_chop","samplers":[{"input":53,"interpolation":"STEP","output":54}],"channels":[{"sampler":0,"target":{"node":0,"path":"weights"}}]},{"name":"earthwarrior_walk_r","samplers":[{"input":55,"interpolation":"STEP","output":56}],"channels":[{"sampler":0,"target":{"node":0,"path":"weights"}}]},{"name":"earthwarrior_walk_f","samplers":[{"input":57,"interpolation":"STEP","output":58}],"channels":[{"sampler":0,"target":{"node":0,"path":"weights"}}]},{"name":"earthwarrior_walk_b","samplers":[{"input":59,"interpolation":"STEP","output":60}],"channels":[{"sampler":0,"target":{"node":0,"path":"weights"}}]},{"name":"earthwarrior_walk_l","samplers":[{"input":61,"interpolation":"STEP","output":62}],"channels":[{"sampler":0,"target":{"node":0,"path":"weights"}}]},{"name":"earthwarrior_def","samplers":[{"input":63,"interpolation":"STEP","output":64}],"channels":[{"sampler":0,"target":{"node":0,"path":"weights"}}]}],"buffers":[{"uri":"data:application/octet-stream;base64,","byteLength":4836},{"uri":"data:application/octet-stream;base64,","byteLength":8880},{"uri":"data:application/octet-stream;base64,","byteLength":8880},{"uri":"data:application/octet-stream;base64,","byteLength":8880},{"uri":"data:application/octet-stream;base64,","byteLength":8880},{"uri":"data:application/octet-stream;base64,","byteLength":8880},{"uri":"data:application/octet-stream;base64,","byteLength":8880},{"uri":"data:application/octet-stream;base64,","byteLength":8880},{"uri":"data:application/octet-stream;base64,","byteLength":8880},{"uri":"data:application/octet-stream;base64,","byteLength":8880},{"uri":"data:application/octet-stream;base64,","byteLength":8880},{"uri":"data:application/octet-stream;base64,","byteLength":8880},{"uri":"data:application/octet-stream;base64,","byteLength":8880},{"uri":"data:application/octet-stream;base64,","byteLength":8880},{"uri":"data:application/octet-stream;base64,","byteLength":8880},{"uri":"data:application/octet-stream;base64,","byteLength":8880},{"uri":"data:application/octet-stream;base64,","byteLength":8880},{"uri":"data:application/octet-stream;base64,","byteLength":8880},{"uri":"data:application/octet-stream;base64,","byteLength":8880},{"uri":"data:application/octet-stream;base64,","byteLength":8880},{"uri":"data:application/octet-stream;base64,","byteLength":8880},{"uri":"data:application/octet-stream;base64,","byteLength":8880},{"uri":"data:application/octet-stream;base64,","byteLength":8880},{"uri":"data:application/octet-stream;base64,","byteLength":8880},{"uri":"data:application/octet-stream;base64,","byteLength":8880},{"uri":"data:application/octet-stream;base64,","byteLength":8880},{"uri":"data:application/octet-stream;base64,","byteLength":8880},{"uri":"data:application/octet-stream;base64,","byteLength":8880},{"uri":"data:application/octet-stream;base64,","byteLength":8880},{"uri":"data:application/octet-stream;base64,","byteLength":8880},{"uri":"data:application/octet-stream;base64,","byteLength":8880},{"uri":"data:application/octet-stream;base64,","byteLength":8880},{"uri":"data:application/octet-stream;base64,","byteLength":8880},{"uri":"data:application/octet-stream;base64,","byteLength":8880},{"uri":"data:application/octet-stream;base64,","byteLength":8880},{"uri":"data:application/octet-stream;base64,","byteLength":8880},{"uri":"data:application/octet-stream;base64,","byteLength":8880},{"uri":"data:application/octet-stream;base64,","byteLength":8880},{"uri":"data:application/octet-stream;base64,","byteLength":8880},{"uri":"data:application/octet-stream;base64,","byteLength":8880},{"uri":"data:application/octet-stream;base64,","byteLength":8880},{"uri":"data:application/octet-stream;base64,","byteLength":8880},{"uri":"data:application/octet-stream;base64,","byteLength":8880},{"uri":"data:application/octet-stream;base64,","byteLength":8880},{"uri":"data:application/octet-stream;base64,","byteLength":8880},{"uri":"data:application/octet-stream;base64,","byteLength":8880},{"uri":"data:application/octet-stream;base64,","byteLength":8880},{"uri":"data:application/octet-stream;base64,","byteLength":8880},{"uri":"data:application/octet-stream;base64,","byteLength":8880},{"uri":"data:application/octet-stream;base64,","byteLength":1920},{"uri":"data:application/octet-stream;base64,","byteLength":2304},{"uri":"data:application/octet-stream;base64,","byteLength":1536},{"uri":"data:application/octet-stream;base64,","byteLength":768},{"uri":"data:application/octet-stream;base64,","byteLength":1536},{"uri":"data:application/octet-stream;base64,","byteLength":1536},{"uri":"data:application/octet-stream;base64,","byteLength":768},{"uri":"data:application/octet-stream;base64,","byteLength":1920},{"uri":"data:application/gltf-buffer;base64,","byteLength":5920}],"bufferViews":[{"buffer":0,"byteOffset":0,"byteLength":4836,"target":34963},{"buffer":1,"byteOffset":0,"byteLength":8880},{"buffer":2,"byteOffset":0,"byteLength":8880,"target":34962},{"buffer":3,"byteOffset":0,"byteLength":8880,"target":34962},{"buffer":4,"byteOffset":0,"byteLength":8880,"target":34962},{"buffer":5,"byteOffset":0,"byteLength":8880,"target":34962},{"buffer":6,"byteOffset":0,"byteLength":8880,"target":34962},{"buffer":7,"byteOffset":0,"byteLength":8880,"target":34962},{"buffer":8,"byteOffset":0,"byteLength":8880,"target":34962},{"buffer":9,"byteOffset":0,"byteLength":8880,"target":34962},{"buffer":10,"byteOffset":0,"byteLength":8880,"target":34962},{"buffer":11,"byteOffset":0,"byteLength":8880,"target":34962},{"buffer":12,"byteOffset":0,"byteLength":8880,"target":34962},{"buffer":13,"byteOffset":0,"byteLength":8880,"target":34962},{"buffer":14,"byteOffset":0,"byteLength":8880,"target":34962},{"buffer":15,"byteOffset":0,"byteLength":8880,"target":34962},{"buffer":16,"byteOffset":0,"byteLength":8880,"target":34962},{"buffer":17,"byteOffset":0,"byteLength":8880,"target":34962},{"buffer":18,"byteOffset":0,"byteLength":8880,"target":34962},{"buffer":19,"byteOffset":0,"byteLength":8880,"target":34962},{"buffer":20,"byteOffset":0,"byteLength":8880,"target":34962},{"buffer":21,"byteOffset":0,"byteLength":8880,"target":34962},{"buffer":22,"byteOffset":0,"byteLength":8880,"target":34962},{"buffer":23,"byteOffset":0,"byteLength":8880,"target":34962},{"buffer":24,"byteOffset":0,"byteLength":8880,"target":34962},{"buffer":25,"byteOffset":0,"byteLength":8880,"target":34962},{"buffer":26,"byteOffset":0,"byteLength":8880,"target":34962},{"buffer":27,"byteOffset":0,"byteLength":8880,"target":34962},{"buffer":28,"byteOffset":0,"byteLength":8880,"target":34962},{"buffer":29,"byteOffset":0,"byteLength":8880,"target":34962},{"buffer":30,"byteOffset":0,"byteLength":8880,"target":34962},{"buffer":31,"byteOffset":0,"byteLength":8880,"target":34962},{"buffer":32,"byteOffset":0,"byteLength":8880,"target":34962},{"buffer":33,"byteOffset":0,"byteLength":8880,"target":34962},{"buffer":34,"byteOffset":0,"byteLength":8880,"target":34962},{"buffer":35,"byteOffset":0,"byteLength":8880,"target":34962},{"buffer":36,"byteOffset":0,"byteLength":8880,"target":34962},{"buffer":37,"byteOffset":0,"byteLength":8880,"target":34962},{"buffer":38,"byteOffset":0,"byteLength":8880,"target":34962},{"buffer":39,"byteOffset":0,"byteLength":8880,"target":34962},{"buffer":40,"byteOffset":0,"byteLength":8880,"target":34962},{"buffer":41,"byteOffset":0,"byteLength":8880,"target":34962},{"buffer":42,"byteOffset":0,"byteLength":8880,"target":34962},{"buffer":43,"byteOffset":0,"byteLength":8880,"target":34962},{"buffer":44,"byteOffset":0,"byteLength":8880,"target":34962},{"buffer":45,"byteOffset":0,"byteLength":8880,"target":34962},{"buffer":46,"byteOffset":0,"byteLength":8880,"target":34962},{"buffer":47,"byteOffset":0,"byteLength":8880,"target":34962},{"buffer":48,"byteOffset":0,"byteLength":8880,"target":34962},{"buffer":49,"byteOffset":0,"byteLength":40},{"buffer":49,"byteOffset":40,"byteLength":1880},{"buffer":50,"byteOffset":0,"byteLength":48},{"buffer":50,"byteOffset":48,"byteLength":2256},{"buffer":51,"byteOffset":0,"byteLength":32},{"buffer":51,"byteOffset":32,"byteLength":1504},{"buffer":52,"byteOffset":0,"byteLength":16},{"buffer":52,"byteOffset":16,"byteLength":752},{"buffer":53,"byteOffset":0,"byteLength":32},{"buffer":53,"byteOffset":32,"byteLength":1504},{"buffer":54,"byteOffset":0,"byteLength":32},{"buffer":54,"byteOffset":32,"byteLength":1504},{"buffer":55,"byteOffset":0,"byteLength":16},{"buffer":55,"byteOffset":16,"byteLength":752},{"buffer":56,"byteOffset":0,"byteLength":40},{"buffer":56,"byteOffset":40,"byteLength":1880},{"buffer":57,"byteOffset":0,"target":34962,"byteLength":5920}],"accessors":[{"bufferView":0,"byteOffset":0,"componentType":5123,"count":2418,"type":"SCALAR","max":[739],"min":[0]},{"bufferView":1,"byteOffset":0,"componentType":5126,"count":740,"type":"VEC3","max":[52,204,59],"min":[-43,0,-66]},{"bufferView":2,"byteOffset":0,"componentType":5126,"count":740,"type":"VEC3","max":[5.333333333333334,43,26.25],"min":[-18.333333333333336,-22,-26.333333333333336]},{"bufferView":3,"byteOffset":0,"componentType":5126,"count":740,"type":"VEC3","max":[12,72.3125,33],"min":[-11.333333333333336,-36.5,-48.583333333333336]},{"bufferView":4,"byteOffset":0,"componentType":5126,"count":740,"type":"VEC3","max":[24,92.75,51.5],"min":[-19,-38.25,-94.3125]},{"bufferView":5,"byteOffset":0,"componentType":5126,"count":740,"type":"VEC3","max":[24,141,71.25],"min":[-25.9375,-13,-121.375]},{"bufferView":6,"byteOffset":0,"componentType":5126,"count":740,"type":"VEC3","max":[25,145.5,54.75],"min":[-34,-27,-170.4375]},{"bufferView":7,"byteOffset":0,"componentType":5126,"count":740,"type":"VEC3","max":[31.75,120.75,28.5],"min":[-54.25,-30,-88.75]},{"bufferView":8,"byteOffset":0,"componentType":5126,"count":740,"type":"VEC3","max":[59.75,102,95.5],"min":[-50.25,-27.66666666666667,-64.91666666666666]},{"bufferView":9,"byteOffset":0,"componentType":5126,"count":740,"type":"VEC3","max":[51.75,61.25,147.75],"min":[-33.25,-59,-68.58333333333334]},{"bufferView":10,"byteOffset":0,"componentType":5126,"count":740,"type":"VEC3","max":[31,22.5,132],"min":[-29.3125,-121,-72.08333333333334]},{"bufferView":11,"byteOffset":0,"componentType":5126,"count":740,"type":"VEC3","max":[4,19.5,136],"min":[-25.3125,-192,-84.91666666666666]},{"bufferView":12,"byteOffset":0,"componentType":5126,"count":740,"type":"VEC3","max":[5.333333333333334,32,17],"min":[-18.333333333333336,-19,-26.333333333333336]},{"bufferView":13,"byteOffset":0,"componentType":5126,"count":740,"type":"VEC3","max":[5.333333333333334,33,17],"min":[-18.333333333333336,-18,-26.333333333333336]},{"bufferView":14,"byteOffset":0,"componentType":5126,"count":740,"type":"VEC3","max":[5.333333333333334,34,17],"min":[-18.333333333333336,-17,-26.333333333333336]},{"bufferView":15,"byteOffset":0,"componentType":5126,"count":740,"type":"VEC3","max":[5.333333333333334,35,17],"min":[-18.333333333333336,-16,-26.333333333333336]},{"bufferView":16,"byteOffset":0,"componentType":5126,"count":740,"type":"VEC3","max":[5.333333333333334,36,17],"min":[-18.333333333333336,-15,-26.333333333333336]},{"bufferView":17,"byteOffset":0,"componentType":5126,"count":740,"type":"VEC3","max":[5.333333333333334,37,17],"min":[-18.333333333333336,-14,-26.333333333333336]},{"bufferView":18,"byteOffset":0,"componentType":5126,"count":740,"type":"VEC3","max":[5.333333333333334,38,17],"min":[-18.333333333333336,-13,-26.333333333333336]},{"bufferView":19,"byteOffset":0,"componentType":5126,"count":740,"type":"VEC3","max":[5.333333333333334,32,17],"min":[-18.333333333333336,-19,-26.333333333333336]},{"bufferView":20,"byteOffset":0,"componentType":5126,"count":740,"type":"VEC3","max":[5.333333333333334,65,43],"min":[-18.333333333333336,-10,-26.333333333333336]},{"bufferView":21,"byteOffset":0,"componentType":5126,"count":740,"type":"VEC3","max":[10.5,101.25,55.5],"min":[-17.333333333333336,-5.5,-41.5]},{"bufferView":22,"byteOffset":0,"componentType":5126,"count":740,"type":"VEC3","max":[16.5,119.25,46.5],"min":[-18.333333333333336,-6.5,-84.5]},{"bufferView":23,"byteOffset":0,"componentType":5126,"count":740,"type":"VEC3","max":[26,110.5,19],"min":[-19.333333333333336,-8,-120]},{"bufferView":24,"byteOffset":0,"componentType":5126,"count":740,"type":"VEC3","max":[9.5,116.3125,73.5],"min":[-18.333333333333336,-6.5,-26.333333333333336]},{"bufferView":25,"byteOffset":0,"componentType":5126,"count":740,"type":"VEC3","max":[3.666666666666666,18.875,76.25],"min":[-15.333333333333336,-9,-24.75]},{"bufferView":26,"byteOffset":0,"componentType":5126,"count":740,"type":"VEC3","max":[4.333333333333336,24.6875,42.3125],"min":[-17.333333333333336,-13.5,-25.25]},{"bufferView":27,"byteOffset":0,"componentType":5126,"count":740,"type":"VEC3","max":[9.125,32,17],"min":[-18.333333333333336,-19,-26.333333333333336]},{"bufferView":28,"byteOffset":0,"componentType":5126,"count":740,"type":"VEC3","max":[16.333333333333332,27,18.5],"min":[-31.33333333333333,-20.5,-21.16666666666667]},{"bufferView":29,"byteOffset":0,"componentType":5126,"count":740,"type":"VEC3","max":[16.333333333333336,24.25,22.25],"min":[-44.33333333333333,-19.5,-10.583333333333336]},{"bufferView":30,"byteOffset":0,"componentType":5126,"count":740,"type":"VEC3","max":[16.333333333333332,27,18.5],"min":[-23.333333333333332,-20.5,-14.5]},{"bufferView":31,"byteOffset":0,"componentType":5126,"count":740,"type":"VEC3","max":[6.5,30.25,53.25],"min":[-16.5,-25.75,-62.666666666666664]},{"bufferView":32,"byteOffset":0,"componentType":5126,"count":740,"type":"VEC3","max":[3,30.16666666666667,30.5],"min":[-9.5,-18.75,-61.333333333333336]},{"bufferView":33,"byteOffset":0,"componentType":5126,"count":740,"type":"VEC3","max":[3,28.33333333333333,17.499999999999996],"min":[-4.833333333333336,-7.166666666666671,-39.5]},{"bufferView":34,"byteOffset":0,"componentType":5126,"count":740,"type":"VEC3","max":[9.5,20.25,26],"min":[-7.5,-7,-33.166666666666664]},{"bufferView":35,"byteOffset":0,"componentType":5126,"count":740,"type":"VEC3","max":[17.5,31.25,40.25],"min":[-14,-15.5,-62.666666666666664]},{"bufferView":36,"byteOffset":0,"componentType":5126,"count":740,"type":"VEC3","max":[9.5,30.16666666666667,25.5],"min":[-7.5,-11.333333333333329,-61.333333333333336]},{"bufferView":37,"byteOffset":0,"componentType":5126,"count":740,"type":"VEC3","max":[3,28.83333333333333,17.166666666666664],"min":[-3.166666666666666,-6.166666666666671,-39.833333333333336]},{"bufferView":38,"byteOffset":0,"componentType":5126,"count":740,"type":"VEC3","max":[3,19.25,30.5],"min":[-9.5,-18.75,-32.333333333333336]},{"bufferView":39,"byteOffset":0,"componentType":5126,"count":740,"type":"VEC3","max":[9.125,32,17],"min":[-18.333333333333336,-19,-26.333333333333336]},{"bufferView":40,"byteOffset":0,"componentType":5126,"count":740,"type":"VEC3","max":[26.333333333333332,27,18.5],"min":[-21.333333333333332,-20.5,-20.75]},{"bufferView":41,"byteOffset":0,"componentType":5126,"count":740,"type":"VEC3","max":[37.33333333333333,24.25,22],"min":[-23.333333333333336,-21.5,-17.25]},{"bufferView":42,"byteOffset":0,"componentType":5126,"count":740,"type":"VEC3","max":[13.125,24.75,23],"min":[-24.333333333333336,-18.5,-6.333333333333334]},{"bufferView":43,"byteOffset":0,"componentType":5126,"count":740,"type":"VEC3","max":[5.333333333333334,32,17],"min":[-18.333333333333336,-19,-26.333333333333336]},{"bufferView":44,"byteOffset":0,"componentType":5126,"count":740,"type":"VEC3","max":[5.333333333333334,47.5,52.5],"min":[-18.333333333333336,-36.5,-26.333333333333336]},{"bufferView":45,"byteOffset":0,"componentType":5126,"count":740,"type":"VEC3","max":[6.5,83.75,77.25],"min":[-25.25,-35.25,-32]},{"bufferView":46,"byteOffset":0,"componentType":5126,"count":740,"type":"VEC3","max":[13.75,117.75,92.5],"min":[-37.25,-23.25,-30.5]},{"bufferView":47,"byteOffset":0,"componentType":5126,"count":740,"type":"VEC3","max":[20.75,133.5,93.5],"min":[-46.25,-14.5,-41.5]},{"bufferView":48,"byteOffset":0,"componentType":5126,"count":740,"type":"VEC3","max":[28.5,148,86],"min":[-55.5,-8.5,-57]},{"bufferView":49,"byteOffset":0,"componentType":5126,"count":10,"type":"SCALAR","max":[400.94],"min":[0.16]},{"bufferView":50,"byteOffset":0,"componentType":5126,"count":470,"type":"SCALAR","max":[1],"min":[0]},{"bufferView":51,"byteOffset":0,"componentType":5126,"count":12,"type":"SCALAR","max":[2.16],"min":[0.18]},{"bufferView":52,"byteOffset":0,"componentType":5126,"count":564,"type":"SCALAR","max":[1],"min":[0]},{"bufferView":53,"byteOffset":0,"componentType":5126,"count":8,"type":"SCALAR","max":[0.76],"min":[0.08]},{"bufferView":54,"byteOffset":0,"componentType":5126,"count":376,"type":"SCALAR","max":[1],"min":[0]},{"bufferView":55,"byteOffset":0,"componentType":5126,"count":4,"type":"SCALAR","max":[0.48],"min":[0.12]},{"bufferView":56,"byteOffset":0,"componentType":5126,"count":188,"type":"SCALAR","max":[1],"min":[0]},{"bufferView":57,"byteOffset":0,"componentType":5126,"count":8,"type":"SCALAR","max":[0.96],"min":[0.12]},{"bufferView":58,"byteOffset":0,"componentType":5126,"count":376,"type":"SCALAR","max":[1],"min":[0]},{"bufferView":59,"byteOffset":0,"componentType":5126,"count":8,"type":"SCALAR","max":[0.96],"min":[0.12]},{"bufferView":60,"byteOffset":0,"componentType":5126,"count":376,"type":"SCALAR","max":[1],"min":[0]},{"bufferView":61,"byteOffset":0,"componentType":5126,"count":4,"type":"SCALAR","max":[0.48],"min":[0.12]},{"bufferView":62,"byteOffset":0,"componentType":5126,"count":188,"type":"SCALAR","max":[1],"min":[0]},{"bufferView":63,"byteOffset":0,"componentType":5126,"count":10,"type":"SCALAR","max":[1.32],"min":[0.08]},{"bufferView":64,"byteOffset":0,"componentType":5126,"count":470,"type":"SCALAR","max":[1],"min":[0]},{"bufferView":65,"byteOffset":0,"componentType":5126,"count":740,"type":"VEC2","max":[0.9500000000000001,0.66],"min":[0.05,0.33]}],"asset":{"version":"2.0"}}