{"scene":0,"scenes":[{"nodes":[0]}],"nodes":[{"mesh":0}],"meshes":[{"primitives":[{"attributes":{"POSITION":1,"TEXCOORD_0":12},"indices":0,"targets":[{"POSITION":4},{"POSITION":6},{"POSITION":8}],"material":0},{"attributes":{"POSITION":3,"TEXCOORD_0":13},"indices":2,"targets":[{"POSITION":5},{"POSITION":7},{"POSITION":9}],"material":1}],"weights":[1,0,0]}],"textures":[{"source":0,"sampler":0}],"images":[{"uri":"data:image/png;base64,"}],"samplers":[{"magFilter":9728,"minFilter":9987,"wrapS":33648,"wrapT":33648},{"magFilter":9728,"minFilter":9987,"wrapS":33648,"wrapT":33648}],"materials":[{"pbrMetallicRoughness":{"baseColorTexture":{"index":0},"metallicFactor":0,"roughnessFactor":1}},{"alphaMode":"BLEND","pbrMetallicRoughness":{"baseColorTexture":{"index":0},"metallicFactor":0,"roughnessFactor":1}}],"animations":[{"name":"hanginglantern","samplers":[{"input":10,"interpolation":"STEP","output":11}],"channels":[{"sampler":0,"target":{"node":0,"path":"weights"}}]}],"buffers":[{"uri":"data:application/octet-stream;base64,","byteLength":828},{"uri":"data:application/octet-stream;base64,","byteLength":948},{"uri":"data:application/octet-stream;base64,","byteLength":288},{"uri":"data:application/octet-stream;base64,","byteLength":408},{"uri":"data:application/octet-stream;base64,","byteLength":948},{"uri":"data:application/octet-stream;base64,","byteLength":408},{"uri":"data:application/octet-stream;base64,","byteLength":948},{"uri":"data:application/octet-stream;base64,","byteLength":408},{"uri":"data:application/octet-stream;base64,","byteLength":948},{"uri":"data:application/octet-stream;base64,","byteLength":408},{"uri":"data:application/octet-stream;base64,","byteLength":64},{"uri":"data:application/gltf-buffer;base64,","byteLength":632},{"uri":"data:application/gltf-buffer;base64,","byteLength":272}],"bufferViews":[{"buffer":0,"byteOffset":0,"byteLength":828,"target":34963},{"buffer":1,"byteOffset":0,"byteLength":948},{"buffer":2,"byteOffset":0,"byteLength":288,"target":34963},{"buffer":3,"byteOffset":0,"byteLength":408},{"buffer":4,"byteOffset":0,"byteLength":948,"target":34962},{"buffer":5,"byteOffset":0,"byteLength":408,"target":34962},{"buffer":6,"byteOffset":0,"byteLength":948,"target":34962},{"buffer":7,"byteOffset":0,"byteLength":408,"target":34962},{"buffer":8,"byteOffset":0,"byteLength":948,"target":34962},{"buffer":9,"byteOffset":0,"byteLength":408,"target":34962},{"buffer":10,"byteOffset":0,"byteLength":16},{"buffer":10,"byteOffset":16,"byteLength":48},{"buffer":11,"byteOffset":0,"target":34962,"byteLength":632},{"buffer":12,"byteOffset":0,"target":34962,"byteLength":272}],"accessors":[{"bufferView":0,"byteOffset":0,"componentType":5123,"count":414,"type":"SCALAR","max":[78],"min":[0]},{"bufferView":1,"byteOffset":0,"componentType":5126,"count":79,"type":"VEC3","max":[-30,224,12],"min":[-64,178,-12]},{"bufferView":2,"byteOffset":0,"componentType":5123,"count":144,"type":"SCALAR","max":[33],"min":[0]},{"bufferView":3,"byteOffset":0,"componentType":5126,"count":34,"type":"VEC3","max":[-35,210,7],"min":[-49,182,-7]},{"bufferView":4,"byteOffset":0,"componentType":5126,"count":79,"type":"VEC3","max":[0.66357421875,3.1376953125,0.6328125],"min":[-0.60205078125,0,-0.6328125]},{"bufferView":5,"byteOffset":0,"componentType":5126,"count":34,"type":"VEC3","max":[1.50732421875,6.0908203125,1.4765625],"min":[-1.44580078125,0.1845703125,-1.4765625]},{"bufferView":6,"byteOffset":0,"componentType":5126,"count":79,"type":"VEC3","max":[0,0,0],"min":[0,0,0]},{"bufferView":7,"byteOffset":0,"componentType":5126,"count":34,"type":"VEC3","max":[0,0,0],"min":[0,0,0]},{"bufferView":8,"byteOffset":0,"componentType":5126,"count":79,"type":"VEC3","max":[0.3567708333333357,0,0.375],"min":[-0.3932291666666643,-1.859375,-0.375]},{"bufferView":9,"byteOffset":0,"componentType":5126,"count":34,"type":"VEC3","max":[0.8567708333333357,-0.109375,0.875],"min":[-0.8932291666666643,-3.609375,-0.875]},{"bufferView":10,"byteOffset":0,"componentType":5126,"count":4,"type":"SCALAR","max":[0.18],"min":[0.06]},{"bufferView":11,"byteOffset":0,"componentType":5126,"count":12,"type":"SCALAR","max":[1],"min":[0]},{"bufferView":12,"byteOffset":0,"componentType":5126,"count":79,"type":"VEC2","max":[0.9166666666666667,0.66],"min":[0.08333333333333333,0.33]},{"bufferView":13,"byteOffset":0,"componentType":5126,"count":34,"type":"VEC2","max":[0.75,0.66],"min":[0.5833333333333334,0.33]}],"asset":{"version":"2.0"}}