{"scene":0,"scenes":[{"nodes":[0]}],"nodes":[{"mesh":0}],"meshes":[{"primitives":[{"attributes":{"POSITION":1,"TEXCOORD_0":4},"indices":0,"material":0},{"attributes":{"POSITION":3,"TEXCOORD_0":5},"indices":2,"material":1}]}],"textures":[{"source":0,"sampler":0}],"images":[{"uri":"data:image/png;base64,"}],"samplers":[{"magFilter":9728,"minFilter":9987,"wrapS":33648,"wrapT":33648},{"magFilter":9728,"minFilter":9987,"wrapS":33648,"wrapT":33648}],"materials":[{"pbrMetallicRoughness":{"baseColorTexture":{"index":0},"metallicFactor":0,"roughnessFactor":1}},{"alphaMode":"BLEND","pbrMetallicRoughness":{"baseColorTexture":{"index":0},"metallicFactor":0,"roughnessFactor":1}}],"buffers":[{"uri":"data:application/octet-stream;base64,","byteLength":828},{"uri":"data:application/octet-stream;base64,","byteLength":948},{"uri":"data:application/octet-stream;base64,","byteLength":288},{"uri":"data:application/octet-stream;base64,","byteLength":408},{"uri":"data:application/gltf-buffer;base64,","byteLength":632},{"uri":"data:application/gltf-buffer;base64,","byteLength":272}],"bufferViews":[{"buffer":0,"byteOffset":0,"byteLength":828,"target":34963},{"buffer":1,"byteOffset":0,"byteLength":948},{"buffer":2,"byteOffset":0,"byteLength":288,"target":34963},{"buffer":3,"byteOffset":0,"byteLength":408},{"buffer":4,"byteOffset":0,"target":34962,"byteLength":632},{"buffer":5,"byteOffset":0,"target":34962,"byteLength":272}],"accessors":[{"bufferView":0,"byteOffset":0,"componentType":5123,"count":414,"type":"SCALAR","max":[78],"min":[0]},{"bufferView":1,"byteOffset":0,"componentType":5126,"count":79,"type":"VEC3","max":[-30,224,12],"min":[-64,178,-12]},{"bufferView":2,"byteOffset":0,"componentType":5123,"count":144,"type":"SCALAR","max":[33],"min":[0]},{"bufferView":3,"byteOffset":0,"componentType":5126,"count":34,"type":"VEC3","max":[-35,210,7],"min":[-49,182,-7]},{"bufferView":4,"byteOffset":0,"componentType":5126,"count":79,"type":"VEC2","max":[0.9166666666666667,0.66],"min":[0.08333333333333333,0.33]},{"bufferView":5,"byteOffset":0,"componentType":5126,"count":34,"type":"VEC2","max":[0.75,0.66],"min":[0.5833333333333334,0.33]}],"asset":{"version":"2.0"}}