{"scene":0,"scenes":[{"nodes":[0]}],"nodes":[{"mesh":0}],"meshes":[{"primitives":[{"attributes":{"POSITION":1,"TEXCOORD_0":18},"indices":0,"targets":[{"POSITION":2},{"POSITION":3},{"POSITION":4},{"POSITION":5},{"POSITION":6},{"POSITION":7},{"POSITION":8},{"POSITION":9},{"POSITION":10},{"POSITION":11},{"POSITION":12},{"POSITION":13},{"POSITION":14},{"POSITION":15}],"material":0}],"weights":[0,0,0,0,0,0,0,0,0,0,0,0,0,0]}],"textures":[{"source":0,"sampler":0}],"images":[{"uri":"data:image/png;base64,"}],"samplers":[{"magFilter":9728,"minFilter":9987,"wrapS":33648,"wrapT":33648}],"materials":[{"pbrMetallicRoughness":{"baseColorTexture":{"index":0},"metallicFactor":0,"roughnessFactor":1}}],"animations":[{"name":"swarm_walk","samplers":[{"input":16,"interpolation":"STEP","output":17}],"channels":[{"sampler":0,"target":{"node":0,"path":"weights"}}]}],"buffers":[{"uri":"data:application/octet-stream;base64,","byteLength":720},{"uri":"data:application/octet-stream;base64,","byteLength":1272},{"uri":"data:application/octet-stream;base64,","byteLength":1272},{"uri":"data:application/octet-stream;base64,","byteLength":1272},{"uri":"data:application/octet-stream;base64,","byteLength":1272},{"uri":"data:application/octet-stream;base64,","byteLength":1272},{"uri":"data:application/octet-stream;base64,","byteLength":1272},{"uri":"data:application/octet-stream;base64,","byteLength":1272},{"uri":"data:application/octet-stream;base64,","byteLength":1272},{"uri":"data:application/octet-stream;base64,","byteLength":1272},{"uri":"data:application/octet-stream;base64,","byteLength":1272},{"uri":"data:application/octet-stream;base64,","byteLength":1272},{"uri":"data:application/octet-stream;base64,","byteLength":1272},{"uri":"data:application/octet-stream;base64,","byteLength":1272},{"uri":"data:application/octet-stream;base64,","byteLength":1272},{"uri":"data:application/octet-stream;base64,","byteLength":1272},{"uri":"data:application/octet-stream;base64,","byteLength":840},{"uri":"data:application/gltf-buffer;base64,","byteLength":848}],"bufferViews":[{"buffer":0,"byteOffset":0,"byteLength":720,"target":34963},{"buffer":1,"byteOffset":0,"byteLength":1272},{"buffer":2,"byteOffset":0,"byteLength":1272,"target":34962},{"buffer":3,"byteOffset":0,"byteLength":1272,"target":34962},{"buffer":4,"byteOffset":0,"byteLength":1272,"target":34962},{"buffer":5,"byteOffset":0,"byteLength":1272,"target":34962},{"buffer":6,"byteOffset":0,"byteLength":1272,"target":34962},{"buffer":7,"byteOffset":0,"byteLength":1272,"target":34962},{"buffer":8,"byteOffset":0,"byteLength":1272,"target":34962},{"buffer":9,"byteOffset":0,"byteLength":1272,"target":34962},{"buffer":10,"byteOffset":0,"byteLength":1272,"target":34962},{"buffer":11,"byteOffset":0,"byteLength":1272,"target":34962},{"buffer":12,"byteOffset":0,"byteLength":1272,"target":34962},{"buffer":13,"byteOffset":0,"byteLength":1272,"target":34962},{"buffer":14,"byteOffset":0,"byteLength":1272,"target":34962},{"buffer":15,"byteOffset":0,"byteLength":1272,"target":34962},{"buffer":16,"byteOffset":0,"byteLength":56},{"buffer":16,"byteOffset":56,"byteLength":784},{"buffer":17,"byteOffset":0,"target":34962,"byteLength":848}],"accessors":[{"bufferView":0,"byteOffset":0,"componentType":5123,"count":360,"type":"SCALAR","max":[105],"min":[0]},{"bufferView":1,"byteOffset":0,"componentType":5126,"count":106,"type":"VEC3","max":[77,17,68],"min":[-75,0,-86]},{"bufferView":2,"byteOffset":0,"componentType":5126,"count":106,"type":"VEC3","max":[0,0,0],"min":[0,0,0]},{"bufferView":3,"byteOffset":0,"componentType":5126,"count":106,"type":"VEC3","max":[8.458333333333336,0,10.041666666666668],"min":[-11.541666666666668,-2,-9.958333333333332]},{"bufferView":4,"byteOffset":0,"componentType":5126,"count":106,"type":"VEC3","max":[18.458333333333332,0,20.041666666666668],"min":[-24.541666666666668,-5,-20.958333333333332]},{"bufferView":5,"byteOffset":0,"componentType":5126,"count":106,"type":"VEC3","max":[30.458333333333332,2,29.041666666666668],"min":[-33.54166666666667,-5,-30.958333333333332]},{"bufferView":6,"byteOffset":0,"componentType":5126,"count":106,"type":"VEC3","max":[42.45833333333333,5,36.041666666666664],"min":[-42.54166666666667,-5,-40.958333333333336]},{"bufferView":7,"byteOffset":0,"componentType":5126,"count":106,"type":"VEC3","max":[51.45833333333333,5,44.041666666666664],"min":[-48.54166666666667,-2,-50.95833333333333]},{"bufferView":8,"byteOffset":0,"componentType":5126,"count":106,"type":"VEC3","max":[58.45833333333333,5,54.041666666666664],"min":[-56.541666666666664,0,-59.95833333333333]},{"bufferView":9,"byteOffset":0,"componentType":5126,"count":106,"type":"VEC3","max":[65.45833333333334,5,64.04166666666667],"min":[-68.54166666666667,0,-68.95833333333333]},{"bufferView":10,"byteOffset":0,"componentType":5126,"count":106,"type":"VEC3","max":[72.45833333333334,5,75.04166666666667],"min":[-79.54166666666667,0,-76.95833333333334]},{"bufferView":11,"byteOffset":0,"componentType":5126,"count":106,"type":"VEC3","max":[83.45833333333334,5,83.04166666666666],"min":[-85.54166666666666,0,-86.95833333333334]},{"bufferView":12,"byteOffset":0,"componentType":5126,"count":106,"type":"VEC3","max":[93.45833333333334,5,90.04166666666666],"min":[-92.54166666666666,0,-96.95833333333334]},{"bufferView":13,"byteOffset":0,"componentType":5126,"count":106,"type":"VEC3","max":[71.45833333333334,3,69.04166666666667],"min":[-69.54166666666667,0,-72.95833333333334]},{"bufferView":14,"byteOffset":0,"componentType":5126,"count":106,"type":"VEC3","max":[48.45833333333333,2,46.041666666666664],"min":[-47.54166666666667,0,-47.95833333333333]},{"bufferView":15,"byteOffset":0,"componentType":5126,"count":106,"type":"VEC3","max":[22.458333333333332,1,24.041666666666668],"min":[-23.541666666666668,0,-22.958333333333332]},{"bufferView":16,"byteOffset":0,"componentType":5126,"count":14,"type":"SCALAR","max":[0.56],"min":[0.04]},{"bufferView":17,"byteOffset":0,"componentType":5126,"count":196,"type":"SCALAR","max":[1],"min":[0]},{"bufferView":18,"byteOffset":0,"componentType":5126,"count":106,"type":"VEC2","max":[0.75,0.66],"min":[0.25,0.33]}],"asset":{"version":"2.0"}}