{"scene":0,"scenes":[{"nodes":[0]}],"nodes":[{"mesh":0}],"meshes":[{"primitives":[{"attributes":{"POSITION":1,"TEXCOORD_0":2},"indices":0,"material":0}]}],"textures":[{"source":0,"sampler":0}],"images":[{"uri":"data:image/png;base64,"}],"samplers":[{"magFilter":9728,"minFilter":9987,"wrapS":33648,"wrapT":33648}],"materials":[{"pbrMetallicRoughness":{"baseColorTexture":{"index":0},"metallicFactor":0,"roughnessFactor":1}}],"buffers":[{"uri":"data:application/octet-stream;base64,","byteLength":870},{"uri":"data:application/octet-stream;base64,","byteLength":1524},{"uri":"data:application/gltf-buffer;base64,","byteLength":1016}],"bufferViews":[{"buffer":0,"byteOffset":0,"byteLength":870,"target":34963},{"buffer":1,"byteOffset":0,"byteLength":1524},{"buffer":2,"byteOffset":0,"target":34962,"byteLength":1016}],"accessors":[{"bufferView":0,"byteOffset":0,"componentType":5123,"count":435,"type":"SCALAR","max":[126],"min":[0]},{"bufferView":1,"byteOffset":0,"componentType":5126,"count":127,"type":"VEC3","max":[-60,196,46],"min":[-64,28,-46]},{"bufferView":2,"byteOffset":0,"componentType":5126,"count":127,"type":"VEC2","max":[0.9,0.66],"min":[0.1,0.33]}],"asset":{"version":"2.0"}}