{"scene":0,"scenes":[{"nodes":[0]}],"nodes":[{"mesh":0}],"meshes":[{"primitives":[{"attributes":{"POSITION":1,"TEXCOORD_0":22},"indices":0,"targets":[{"POSITION":4},{"POSITION":6},{"POSITION":8},{"POSITION":10},{"POSITION":12},{"POSITION":14},{"POSITION":16}],"material":0},{"attributes":{"POSITION":3,"TEXCOORD_0":23},"indices":2,"targets":[{"POSITION":5},{"POSITION":7},{"POSITION":9},{"POSITION":11},{"POSITION":13},{"POSITION":15},{"POSITION":17}],"material":1}],"weights":[1,0,0,0,0,0,0]}],"textures":[{"source":0,"sampler":0}],"images":[{"uri":"data:image/png;base64,"}],"samplers":[{"magFilter":9728,"minFilter":9987,"wrapS":33648,"wrapT":33648},{"magFilter":9728,"minFilter":9987,"wrapS":33648,"wrapT":33648}],"materials":[{"pbrMetallicRoughness":{"baseColorTexture":{"index":0},"metallicFactor":0,"roughnessFactor":1}},{"alphaMode":"BLEND","pbrMetallicRoughness":{"baseColorTexture":{"index":0},"metallicFactor":0,"roughnessFactor":1}}],"animations":[{"name":"rock_pool","samplers":[{"input":18,"interpolation":"STEP","output":19}],"channels":[{"sampler":0,"target":{"node":0,"path":"weights"}}]},{"name":"rock_pool_slow","samplers":[{"input":20,"interpolation":"STEP","output":21}],"channels":[{"sampler":0,"target":{"node":0,"path":"weights"}}]}],"buffers":[{"uri":"data:application/octet-stream;base64,","byteLength":972},{"uri":"data:application/octet-stream;base64,","byteLength":2172},{"uri":"data:application/octet-stream;base64,","byteLength":48},{"uri":"data:application/octet-stream;base64,","byteLength":96},{"uri":"data:application/octet-stream;base64,","byteLength":2172},{"uri":"data:application/octet-stream;base64,","byteLength":96},{"uri":"data:application/octet-stream;base64,","byteLength":2172},{"uri":"data:application/octet-stream;base64,","byteLength":96},{"uri":"data:application/octet-stream;base64,","byteLength":2172},{"uri":"data:application/octet-stream;base64,","byteLength":96},{"uri":"data:application/octet-stream;base64,","byteLength":2172},{"uri":"data:application/octet-stream;base64,","byteLength":96},{"uri":"data:application/octet-stream;base64,","byteLength":2172},{"uri":"data:application/octet-stream;base64,","byteLength":96},{"uri":"data:application/octet-stream;base64,","byteLength":2172},{"uri":"data:application/octet-stream;base64,","byteLength":96},{"uri":"data:application/octet-stream;base64,","byteLength":2172},{"uri":"data:application/octet-stream;base64,","byteLength":96},{"uri":"data:application/octet-stream;base64,","byteLength":192},{"uri":"data:application/octet-stream;base64,","byteLength":192},{"uri":"data:application/gltf-buffer;base64,","byteLength":1448},{"uri":"data:application/gltf-buffer;base64,","byteLength":64}],"bufferViews":[{"buffer":0,"byteOffset":0,"byteLength":972,"target":34963},{"buffer":1,"byteOffset":0,"byteLength":2172},{"buffer":2,"byteOffset":0,"byteLength":48,"target":34963},{"buffer":3,"byteOffset":0,"byteLength":96},{"buffer":4,"byteOffset":0,"byteLength":2172,"target":34962},{"buffer":5,"byteOffset":0,"byteLength":96,"target":34962},{"buffer":6,"byteOffset":0,"byteLength":2172,"target":34962},{"buffer":7,"byteOffset":0,"byteLength":96,"target":34962},{"buffer":8,"byteOffset":0,"byteLength":2172,"target":34962},{"buffer":9,"byteOffset":0,"byteLength":96,"target":34962},{"buffer":10,"byteOffset":0,"byteLength":2172,"target":34962},{"buffer":11,"byteOffset":0,"byteLength":96,"target":34962},{"buffer":12,"byteOffset":0,"byteLength":2172,"target":34962},{"buffer":13,"byteOffset":0,"byteLength":96,"target":34962},{"buffer":14,"byteOffset":0,"byteLength":2172,"target":34962},{"buffer":15,"byteOffset":0,"byteLength":96,"target":34962},{"buffer":16,"byteOffset":0,"byteLength":2172,"target":34962},{"buffer":17,"byteOffset":0,"byteLength":96,"target":34962},{"buffer":18,"byteOffset":0,"byteLength":24},{"buffer":18,"byteOffset":24,"byteLength":168},{"buffer":19,"byteOffset":0,"byteLength":24},{"buffer":19,"byteOffset":24,"byteLength":168},{"buffer":20,"byteOffset":0,"target":34962,"byteLength":1448},{"buffer":21,"byteOffset":0,"target":34962,"byteLength":64}],"accessors":[{"bufferView":0,"byteOffset":0,"componentType":5123,"count":486,"type":"SCALAR","max":[180],"min":[0]},{"bufferView":1,"byteOffset":0,"componentType":5126,"count":181,"type":"VEC3","max":[56,114,51],"min":[-52,0,-52]},{"bufferView":2,"byteOffset":0,"componentType":5123,"count":24,"type":"SCALAR","max":[7],"min":[0]},{"bufferView":3,"byteOffset":0,"componentType":5126,"count":8,"type":"VEC3","max":[28,108,-22],"min":[11,78,-39]},{"bufferView":4,"byteOffset":0,"componentType":5126,"count":181,"type":"VEC3","max":[0,0,0],"min":[0,0,0]},{"bufferView":5,"byteOffset":0,"componentType":5126,"count":8,"type":"VEC3","max":[0,0,0],"min":[0,0,0]},{"bufferView":6,"byteOffset":0,"componentType":5126,"count":181,"type":"VEC3","max":[0,0,0],"min":[0,0,0]},{"bufferView":7,"byteOffset":0,"componentType":5126,"count":8,"type":"VEC3","max":[0,0,0],"min":[0,0,0]},{"bufferView":8,"byteOffset":0,"componentType":5126,"count":181,"type":"VEC3","max":[0,0,0],"min":[0,0,0]},{"bufferView":9,"byteOffset":0,"componentType":5126,"count":8,"type":"VEC3","max":[0,0,0],"min":[0,0,0]},{"bufferView":10,"byteOffset":0,"componentType":5126,"count":181,"type":"VEC3","max":[0,0,0],"min":[0,0,0]},{"bufferView":11,"byteOffset":0,"componentType":5126,"count":8,"type":"VEC3","max":[0,0,0],"min":[0,0,0]},{"bufferView":12,"byteOffset":0,"componentType":5126,"count":181,"type":"VEC3","max":[0,0,0],"min":[0,0,0]},{"bufferView":13,"byteOffset":0,"componentType":5126,"count":8,"type":"VEC3","max":[0,0,0],"min":[0,0,0]},{"bufferView":14,"byteOffset":0,"componentType":5126,"count":181,"type":"VEC3","max":[0,0,0],"min":[0,0,0]},{"bufferView":15,"byteOffset":0,"componentType":5126,"count":8,"type":"VEC3","max":[0,0,0],"min":[0,0,0]},{"bufferView":16,"byteOffset":0,"componentType":5126,"count":181,"type":"VEC3","max":[0,0,0],"min":[0,0,0]},{"bufferView":17,"byteOffset":0,"componentType":5126,"count":8,"type":"VEC3","max":[0,0,0],"min":[0,0,0]},{"bufferView":18,"byteOffset":0,"componentType":5126,"count":6,"type":"SCALAR","max":[0.74],"min":[0.14]},{"bufferView":19,"byteOffset":0,"componentType":5126,"count":42,"type":"SCALAR","max":[1],"min":[0]},{"bufferView":20,"byteOffset":0,"componentType":5126,"count":6,"type":"SCALAR","max":[1.46],"min":[0.26]},{"bufferView":21,"byteOffset":0,"componentType":5126,"count":42,"type":"SCALAR","max":[1],"min":[0]},{"bufferView":22,"byteOffset":0,"componentType":5126,"count":181,"type":"VEC2","max":[0.9,0.66],"min":[0.30000000000000004,0.33]},{"bufferView":23,"byteOffset":0,"componentType":5126,"count":8,"type":"VEC2","max":[0.1,0.66],"min":[0.1,0.33]}],"asset":{"version":"2.0"}}