{"scene":0,"scenes":[{"nodes":[0]}],"nodes":[{"mesh":0}],"meshes":[{"primitives":[{"attributes":{"POSITION":1,"TEXCOORD_0":16},"indices":0,"targets":[{"POSITION":2},{"POSITION":3},{"POSITION":4},{"POSITION":5},{"POSITION":6},{"POSITION":7},{"POSITION":8},{"POSITION":9},{"POSITION":10},{"POSITION":11},{"POSITION":12},{"POSITION":13}],"material":0}],"weights":[0,0,0,0,0,0,0,0,0,0,0,0]}],"textures":[{"source":0,"sampler":0}],"images":[{"uri":"data:image/png;base64,"}],"samplers":[{"magFilter":9728,"minFilter":9987,"wrapS":33648,"wrapT":33648}],"materials":[{"pbrMetallicRoughness":{"baseColorTexture":{"index":0},"metallicFactor":0,"roughnessFactor":1}}],"animations":[{"name":"human_ready","samplers":[{"input":14,"interpolation":"STEP","output":15}],"channels":[{"sampler":0,"target":{"node":0,"path":"weights"}}]}],"buffers":[{"uri":"data:application/octet-stream;base64,","byteLength":3450},{"uri":"data:application/octet-stream;base64,","byteLength":4476},{"uri":"data:application/octet-stream;base64,","byteLength":4476},{"uri":"data:application/octet-stream;base64,","byteLength":4476},{"uri":"data:application/octet-stream;base64,","byteLength":4476},{"uri":"data:application/octet-stream;base64,","byteLength":4476},{"uri":"data:application/octet-stream;base64,","byteLength":4476},{"uri":"data:application/octet-stream;base64,","byteLength":4476},{"uri":"data:application/octet-stream;base64,","byteLength":4476},{"uri":"data:application/octet-stream;base64,","byteLength":4476},{"uri":"data:application/octet-stream;base64,","byteLength":4476},{"uri":"data:application/octet-stream;base64,","byteLength":4476},{"uri":"data:application/octet-stream;base64,","byteLength":4476},{"uri":"data:application/octet-stream;base64,","byteLength":4476},{"uri":"data:application/octet-stream;base64,","byteLength":624},{"uri":"data:application/gltf-buffer;base64,","byteLength":2984}],"bufferViews":[{"buffer":0,"byteOffset":0,"byteLength":3450,"target":34963},{"buffer":1,"byteOffset":0,"byteLength":4476},{"buffer":2,"byteOffset":0,"byteLength":4476,"target":34962},{"buffer":3,"byteOffset":0,"byteLength":4476,"target":34962},{"buffer":4,"byteOffset":0,"byteLength":4476,"target":34962},{"buffer":5,"byteOffset":0,"byteLength":4476,"target":34962},{"buffer":6,"byteOffset":0,"byteLength":4476,"target":34962},{"buffer":7,"byteOffset":0,"byteLength":4476,"target":34962},{"buffer":8,"byteOffset":0,"byteLength":4476,"target":34962},{"buffer":9,"byteOffset":0,"byteLength":4476,"target":34962},{"buffer":10,"byteOffset":0,"byteLength":4476,"target":34962},{"buffer":11,"byteOffset":0,"byteLength":4476,"target":34962},{"buffer":12,"byteOffset":0,"byteLength":4476,"target":34962},{"buffer":13,"byteOffset":0,"byteLength":4476,"target":34962},{"buffer":14,"byteOffset":0,"byteLength":48},{"buffer":14,"byteOffset":48,"byteLength":576},{"buffer":15,"byteOffset":0,"target":34962,"byteLength":2984}],"accessors":[{"bufferView":0,"byteOffset":0,"componentType":5123,"count":1725,"type":"SCALAR","max":[372],"min":[0]},{"bufferView":1,"byteOffset":0,"componentType":5126,"count":373,"type":"VEC3","max":[35,196,104],"min":[-36,-6,-111]},{"bufferView":2,"byteOffset":0,"componentType":5126,"count":373,"type":"VEC3","max":[14.166666666666668,45.25,42.41666666666667],"min":[-19,-37.75,-27]},{"bufferView":3,"byteOffset":0,"componentType":5126,"count":373,"type":"VEC3","max":[14.166666666666668,44.25,42.41666666666667],"min":[-19,-38.75,-27]},{"bufferView":4,"byteOffset":0,"componentType":5126,"count":373,"type":"VEC3","max":[11,45.25,42.41666666666667],"min":[-19,-37.75,-27]},{"bufferView":5,"byteOffset":0,"componentType":5126,"count":373,"type":"VEC3","max":[9,44.5,40.75],"min":[-19,-38.5,-27.25]},{"bufferView":6,"byteOffset":0,"componentType":5126,"count":373,"type":"VEC3","max":[11,45.25,42.41666666666667],"min":[-19,-37.75,-27]},{"bufferView":7,"byteOffset":0,"componentType":5126,"count":373,"type":"VEC3","max":[14.166666666666668,44.25,42.41666666666667],"min":[-19,-38.75,-27]},{"bufferView":8,"byteOffset":0,"componentType":5126,"count":373,"type":"VEC3","max":[14.166666666666668,45.25,42.41666666666667],"min":[-19,-37.75,-27]},{"bufferView":9,"byteOffset":0,"componentType":5126,"count":373,"type":"VEC3","max":[14.166666666666668,44.25,42.41666666666667],"min":[-19,-38.75,-27]},{"bufferView":10,"byteOffset":0,"componentType":5126,"count":373,"type":"VEC3","max":[14.166666666666668,44.25,42.41666666666667],"min":[-19,-38.75,-27]},{"bufferView":11,"byteOffset":0,"componentType":5126,"count":373,"type":"VEC3","max":[13.166666666666668,50.75,54.5],"min":[-19,-44.25,-30.5]},{"bufferView":12,"byteOffset":0,"componentType":5126,"count":373,"type":"VEC3","max":[13.166666666666668,50,50.5],"min":[-19,-41,-28.5]},{"bufferView":13,"byteOffset":0,"componentType":5126,"count":373,"type":"VEC3","max":[14.166666666666668,47.25,46.25],"min":[-19,-40.75,-27.75]},{"bufferView":14,"byteOffset":0,"componentType":5126,"count":12,"type":"SCALAR","max":[5.04],"min":[0.42]},{"bufferView":15,"byteOffset":0,"componentType":5126,"count":144,"type":"SCALAR","max":[1],"min":[0]},{"bufferView":16,"byteOffset":0,"componentType":5126,"count":373,"type":"VEC2","max":[0.9444444444444444,0.66],"min":[0.05555555555555555,0.33]}],"asset":{"version":"2.0"}}