{"scene":0,"scenes":[{"nodes":[0]}],"nodes":[{"mesh":0}],"meshes":[{"primitives":[{"attributes":{"POSITION":1,"TEXCOORD_0":12},"indices":0,"targets":[{"POSITION":2},{"POSITION":3},{"POSITION":4},{"POSITION":5},{"POSITION":6},{"POSITION":7},{"POSITION":8},{"POSITION":9}],"material":0}],"weights":[0,0,0,0,0,0,0,0]}],"textures":[{"source":0,"sampler":0}],"images":[{"uri":"data:image/png;base64,"}],"samplers":[{"magFilter":9728,"minFilter":9987,"wrapS":33648,"wrapT":33648}],"materials":[{"pbrMetallicRoughness":{"baseColorTexture":{"index":0},"metallicFactor":0,"roughnessFactor":1}}],"animations":[{"name":"tic_toc","samplers":[{"input":10,"interpolation":"STEP","output":11}],"channels":[{"sampler":0,"target":{"node":0,"path":"weights"}}]}],"buffers":[{"uri":"data:application/octet-stream;base64,","byteLength":852},{"uri":"data:application/octet-stream;base64,","byteLength":1704},{"uri":"data:application/octet-stream;base64,","byteLength":1704},{"uri":"data:application/octet-stream;base64,","byteLength":1704},{"uri":"data:application/octet-stream;base64,","byteLength":1704},{"uri":"data:application/octet-stream;base64,","byteLength":1704},{"uri":"data:application/octet-stream;base64,","byteLength":1704},{"uri":"data:application/octet-stream;base64,","byteLength":1704},{"uri":"data:application/octet-stream;base64,","byteLength":1704},{"uri":"data:application/octet-stream;base64,","byteLength":1704},{"uri":"data:application/octet-stream;base64,","byteLength":288},{"uri":"data:application/gltf-buffer;base64,","byteLength":1136}],"bufferViews":[{"buffer":0,"byteOffset":0,"byteLength":852,"target":34963},{"buffer":1,"byteOffset":0,"byteLength":1704},{"buffer":2,"byteOffset":0,"byteLength":1704,"target":34962},{"buffer":3,"byteOffset":0,"byteLength":1704,"target":34962},{"buffer":4,"byteOffset":0,"byteLength":1704,"target":34962},{"buffer":5,"byteOffset":0,"byteLength":1704,"target":34962},{"buffer":6,"byteOffset":0,"byteLength":1704,"target":34962},{"buffer":7,"byteOffset":0,"byteLength":1704,"target":34962},{"buffer":8,"byteOffset":0,"byteLength":1704,"target":34962},{"buffer":9,"byteOffset":0,"byteLength":1704,"target":34962},{"buffer":10,"byteOffset":0,"byteLength":32},{"buffer":10,"byteOffset":32,"byteLength":256},{"buffer":11,"byteOffset":0,"target":34962,"byteLength":1136}],"accessors":[{"bufferView":0,"byteOffset":0,"componentType":5123,"count":426,"type":"SCALAR","max":[141],"min":[0]},{"bufferView":1,"byteOffset":0,"componentType":5126,"count":142,"type":"VEC3","max":[32,200,32],"min":[-32,0,-32]},{"bufferView":2,"byteOffset":0,"componentType":5126,"count":142,"type":"VEC3","max":[0,0,0],"min":[0,0,0]},{"bufferView":3,"byteOffset":0,"componentType":5126,"count":142,"type":"VEC3","max":[4,0.8095238095238102,0],"min":[0,-0.1904761904761898,0]},{"bufferView":4,"byteOffset":0,"componentType":5126,"count":142,"type":"VEC3","max":[10,1.8095238095238102,0],"min":[0,-0.1904761904761898,0]},{"bufferView":5,"byteOffset":0,"componentType":5126,"count":142,"type":"VEC3","max":[4,0.8095238095238102,0],"min":[0,-0.1904761904761898,0]},{"bufferView":6,"byteOffset":0,"componentType":5126,"count":142,"type":"VEC3","max":[0,0,0],"min":[0,0,0]},{"bufferView":7,"byteOffset":0,"componentType":5126,"count":142,"type":"VEC3","max":[0,0.8095238095238102,0],"min":[-5,-0.1904761904761898,0]},{"bufferView":8,"byteOffset":0,"componentType":5126,"count":142,"type":"VEC3","max":[0,1.8095238095238102,0],"min":[-11,-0.1904761904761898,0]},{"bufferView":9,"byteOffset":0,"componentType":5126,"count":142,"type":"VEC3","max":[0,0.8095238095238102,0],"min":[-5,-0.1904761904761898,0]},{"bufferView":10,"byteOffset":0,"componentType":5126,"count":8,"type":"SCALAR","max":[0.98],"min":[0.14]},{"bufferView":11,"byteOffset":0,"componentType":5126,"count":64,"type":"SCALAR","max":[1],"min":[0]},{"bufferView":12,"byteOffset":0,"componentType":5126,"count":142,"type":"VEC2","max":[0.9166666666666667,0.66],"min":[0.08333333333333333,0.33]}],"asset":{"version":"2.0"}}