{"scene":0,"scenes":[{"nodes":[0]}],"nodes":[{"mesh":0}],"meshes":[{"primitives":[{"attributes":{"POSITION":1,"TEXCOORD_0":4},"indices":0,"material":0},{"attributes":{"POSITION":3,"TEXCOORD_0":5},"indices":2,"material":1}]}],"textures":[{"source":0,"sampler":0}],"images":[{"uri":"data:image/png;base64,"}],"samplers":[{"magFilter":9728,"minFilter":9987,"wrapS":33648,"wrapT":33648},{"magFilter":9728,"minFilter":9987,"wrapS":33648,"wrapT":33648}],"materials":[{"pbrMetallicRoughness":{"baseColorTexture":{"index":0},"metallicFactor":0,"roughnessFactor":1}},{"alphaMode":"BLEND","pbrMetallicRoughness":{"baseColorTexture":{"index":0},"metallicFactor":0,"roughnessFactor":1}}],"buffers":[{"uri":"data:application/octet-stream;base64,","byteLength":1908},{"uri":"data:application/octet-stream;base64,","byteLength":3216},{"uri":"data:application/octet-stream;base64,","byteLength":804},{"uri":"data:application/octet-stream;base64,","byteLength":3096},{"uri":"data:application/gltf-buffer;base64,","byteLength":2144},{"uri":"data:application/gltf-buffer;base64,","byteLength":2064}],"bufferViews":[{"buffer":0,"byteOffset":0,"byteLength":1908,"target":34963},{"buffer":1,"byteOffset":0,"byteLength":3216},{"buffer":2,"byteOffset":0,"byteLength":804,"target":34963},{"buffer":3,"byteOffset":0,"byteLength":3096},{"buffer":4,"byteOffset":0,"target":34962,"byteLength":2144},{"buffer":5,"byteOffset":0,"target":34962,"byteLength":2064}],"accessors":[{"bufferView":0,"byteOffset":0,"componentType":5123,"count":954,"type":"SCALAR","max":[267],"min":[0]},{"bufferView":1,"byteOffset":0,"componentType":5126,"count":268,"type":"VEC3","max":[-48,226,36],"min":[-64,9,-36]},{"bufferView":2,"byteOffset":0,"componentType":5123,"count":402,"type":"SCALAR","max":[257],"min":[0]},{"bufferView":3,"byteOffset":0,"componentType":5126,"count":258,"type":"VEC3","max":[-49,221,34],"min":[-63,9,-33]},{"bufferView":4,"byteOffset":0,"componentType":5126,"count":268,"type":"VEC2","max":[0.9705882352941176,0.66],"min":[0.029411764705882353,0.33]},{"bufferView":5,"byteOffset":0,"componentType":5126,"count":258,"type":"VEC2","max":[0.9117647058823529,0.66],"min":[0.08823529411764705,0.33]}],"asset":{"version":"2.0"}}