{"scene":0,"scenes":[{"nodes":[0]}],"nodes":[{"mesh":0}],"meshes":[{"primitives":[{"attributes":{"POSITION":1,"TEXCOORD_0":4},"indices":0,"material":0},{"attributes":{"POSITION":3,"TEXCOORD_0":5},"indices":2,"material":1}]}],"textures":[{"source":0,"sampler":0}],"images":[{"uri":"data:image/png;base64,"}],"samplers":[{"magFilter":9728,"minFilter":9987,"wrapS":33648,"wrapT":33648},{"magFilter":9728,"minFilter":9987,"wrapS":33648,"wrapT":33648}],"materials":[{"pbrMetallicRoughness":{"baseColorTexture":{"index":0},"metallicFactor":0,"roughnessFactor":1}},{"alphaMode":"BLEND","pbrMetallicRoughness":{"baseColorTexture":{"index":0},"metallicFactor":0,"roughnessFactor":1}}],"buffers":[{"uri":"data:application/octet-stream;base64,","byteLength":2058},{"uri":"data:application/octet-stream;base64,","byteLength":5616},{"uri":"data:application/octet-stream;base64,","byteLength":96},{"uri":"data:application/octet-stream;base64,","byteLength":384},{"uri":"data:application/gltf-buffer;base64,","byteLength":3744},{"uri":"data:application/gltf-buffer;base64,","byteLength":256}],"bufferViews":[{"buffer":0,"byteOffset":0,"byteLength":2058,"target":34963},{"buffer":1,"byteOffset":0,"byteLength":5616},{"buffer":2,"byteOffset":0,"byteLength":96,"target":34963},{"buffer":3,"byteOffset":0,"byteLength":384},{"buffer":4,"byteOffset":0,"target":34962,"byteLength":3744},{"buffer":5,"byteOffset":0,"target":34962,"byteLength":256}],"accessors":[{"bufferView":0,"byteOffset":0,"componentType":5123,"count":1029,"type":"SCALAR","max":[467],"min":[0]},{"bufferView":1,"byteOffset":0,"componentType":5126,"count":468,"type":"VEC3","max":[-24,240,64],"min":[-64,0,-64]},{"bufferView":2,"byteOffset":0,"componentType":5123,"count":48,"type":"SCALAR","max":[31],"min":[0]},{"bufferView":3,"byteOffset":0,"componentType":5126,"count":32,"type":"VEC3","max":[-37,176,48],"min":[-39,64,-48]},{"bufferView":4,"byteOffset":0,"componentType":5126,"count":468,"type":"VEC2","max":[0.875,0.66],"min":[0.041666666666666664,0.33]},{"bufferView":5,"byteOffset":0,"componentType":5126,"count":32,"type":"VEC2","max":[0.9583333333333333,0.66],"min":[0.9583333333333333,0.33]}],"asset":{"version":"2.0"}}