{"scene":0,"scenes":[{"nodes":[0]}],"nodes":[{"mesh":0}],"meshes":[{"primitives":[{"attributes":{"POSITION":1,"TEXCOORD_0":13},"indices":0,"targets":[{"POSITION":2},{"POSITION":3},{"POSITION":4},{"POSITION":5},{"POSITION":6},{"POSITION":7},{"POSITION":8}],"material":0}],"weights":[0,0,0,0,0,0,0]}],"textures":[{"source":0,"sampler":0}],"images":[{"uri":"data:image/png;base64,"}],"samplers":[{"magFilter":9728,"minFilter":9987,"wrapS":33648,"wrapT":33648}],"materials":[{"pbrMetallicRoughness":{"baseColorTexture":{"index":0},"metallicFactor":0,"roughnessFactor":1}}],"animations":[{"name":"rock_pool","samplers":[{"input":9,"interpolation":"STEP","output":10}],"channels":[{"sampler":0,"target":{"node":0,"path":"weights"}}]},{"name":"rock_pool_slow","samplers":[{"input":11,"interpolation":"STEP","output":12}],"channels":[{"sampler":0,"target":{"node":0,"path":"weights"}}]}],"buffers":[{"uri":"data:application/octet-stream;base64,","byteLength":576},{"uri":"data:application/octet-stream;base64,","byteLength":1740},{"uri":"data:application/octet-stream;base64,","byteLength":1740},{"uri":"data:application/octet-stream;base64,","byteLength":1740},{"uri":"data:application/octet-stream;base64,","byteLength":1740},{"uri":"data:application/octet-stream;base64,","byteLength":1740},{"uri":"data:application/octet-stream;base64,","byteLength":1740},{"uri":"data:application/octet-stream;base64,","byteLength":1740},{"uri":"data:application/octet-stream;base64,","byteLength":1740},{"uri":"data:application/octet-stream;base64,","byteLength":192},{"uri":"data:application/octet-stream;base64,","byteLength":192},{"uri":"data:application/gltf-buffer;base64,","byteLength":1160}],"bufferViews":[{"buffer":0,"byteOffset":0,"byteLength":576,"target":34963},{"buffer":1,"byteOffset":0,"byteLength":1740},{"buffer":2,"byteOffset":0,"byteLength":1740,"target":34962},{"buffer":3,"byteOffset":0,"byteLength":1740,"target":34962},{"buffer":4,"byteOffset":0,"byteLength":1740,"target":34962},{"buffer":5,"byteOffset":0,"byteLength":1740,"target":34962},{"buffer":6,"byteOffset":0,"byteLength":1740,"target":34962},{"buffer":7,"byteOffset":0,"byteLength":1740,"target":34962},{"buffer":8,"byteOffset":0,"byteLength":1740,"target":34962},{"buffer":9,"byteOffset":0,"byteLength":24},{"buffer":9,"byteOffset":24,"byteLength":168},{"buffer":10,"byteOffset":0,"byteLength":24},{"buffer":10,"byteOffset":24,"byteLength":168},{"buffer":11,"byteOffset":0,"target":34962,"byteLength":1160}],"accessors":[{"bufferView":0,"byteOffset":0,"componentType":5123,"count":288,"type":"SCALAR","max":[144],"min":[0]},{"bufferView":1,"byteOffset":0,"componentType":5126,"count":145,"type":"VEC3","max":[-56,236,64],"min":[-64,70,-56]},{"bufferView":2,"byteOffset":0,"componentType":5126,"count":145,"type":"VEC3","max":[0,0,0],"min":[0,0,0]},{"bufferView":3,"byteOffset":0,"componentType":5126,"count":145,"type":"VEC3","max":[0,0,0],"min":[0,0,0]},{"bufferView":4,"byteOffset":0,"componentType":5126,"count":145,"type":"VEC3","max":[0,0,0],"min":[0,0,0]},{"bufferView":5,"byteOffset":0,"componentType":5126,"count":145,"type":"VEC3","max":[0,0,0],"min":[0,0,0]},{"bufferView":6,"byteOffset":0,"componentType":5126,"count":145,"type":"VEC3","max":[0,0,0],"min":[0,0,0]},{"bufferView":7,"byteOffset":0,"componentType":5126,"count":145,"type":"VEC3","max":[0,0,0],"min":[0,0,0]},{"bufferView":8,"byteOffset":0,"componentType":5126,"count":145,"type":"VEC3","max":[0,0,0],"min":[0,0,0]},{"bufferView":9,"byteOffset":0,"componentType":5126,"count":6,"type":"SCALAR","max":[0.74],"min":[0.14]},{"bufferView":10,"byteOffset":0,"componentType":5126,"count":42,"type":"SCALAR","max":[1],"min":[0]},{"bufferView":11,"byteOffset":0,"componentType":5126,"count":6,"type":"SCALAR","max":[1.46],"min":[0.26]},{"bufferView":12,"byteOffset":0,"componentType":5126,"count":42,"type":"SCALAR","max":[1],"min":[0]},{"bufferView":13,"byteOffset":0,"componentType":5126,"count":145,"type":"VEC2","max":[0.9545454545454545,0.66],"min":[0.045454545454545456,0.33]}],"asset":{"version":"2.0"}}